<?xml version="1.0" standalone="no"?>
<!DOCTYPE svg PUBLIC "-//W3C//DTD SVG 1.1//EN" "http://www.w3.org/Graphics/SVG/1.1/DTD/svg11.dtd" >
<svg>
<metadata>
Created by FontForge 20090914 at Tue Sep  8 13:55:28 2015
 By www-data
(c) 2000 Borna Rayaneh
</metadata>
<defs>
<font id="BTraffic" horiz-adv-x="0" >
  <font-face 
    font-family="B Traffic"
    font-weight="400"
    font-stretch="normal"
    units-per-em="2048"
    panose-1="0 0 4 0 0 0 0 0 0 0"
    ascent="1638"
    descent="-410"
    bbox="-186 -1295 2406 2069"
    underline-thickness="60"
    underline-position="-1010"
    unicode-range="U+0020-U+FEFC"
  />
<missing-glyph horiz-adv-x="1024" 
d="M128 0v1264h768v-1264h-768zM256 128h512v1008h-512v-1008z" />
    <glyph glyph-name="uE818" unicode="&#x651;&#x64b;" 
d="M578 1910l-526 -131l-24 78l526 137zM578 1738l-526 -131l-24 78l526 137zM566 1421c0 -38 -9.66504 -69.998 -28.998 -95.998c-21.333 -28.667 -50.333 -43 -87 -43c-64 0 -114.333 25.667 -151 77c-36.667 -86 -95.334 -129 -176.001 -129
c-34.667 0 -62.334 12.667 -83.001 38s-31 55.666 -31 90.999c0 47.333 14.333 104.666 43 171.999l64 -33c-18.667 -48 -28 -80.667 -28 -98c0 -45.333 18.333 -68 55 -68c71.333 0 106 61 104 183l85 47c2.66699 -120.667 34.667 -181 96 -181c38 0 57 20.667 57 62
c0 22 -16.333 58.667 -49 110l68 49c41.333 -58.667 62 -119 62 -181z" />
    <glyph glyph-name="uFC5E" unicode="&#x651;&#x64c;" arabic-form="isolated" 
d="M563 1452c0 -38.667 -9.66992 -70.667 -29.0029 -96c-21.333 -28.667 -50.666 -43 -87.999 -43c-64 0 -114 25.667 -150 77c-38 -86 -96.667 -129 -176 -129c-35.333 0 -63.333 12.5 -84 37.5s-31 55.167 -31 90.5c0 46 14.667 103.333 44 172l63 -32
c-18.667 -52 -28 -85 -28 -99c0 -45.333 18.333 -68 55 -68c72.667 0 107.334 61.333 104.001 184l86 46c2.66699 -120.667 34.334 -181 95.001 -181c38.667 0 58 21 58 63c0 23.333 -16.333 59.666 -49 108.999l67 50c42 -59.333 63 -119.666 63 -180.999zM569.997 1905
c0 -90 -55.999 -148.335 -167.999 -175.002l-357 -85l-20 75c54 15.333 81 46.666 81 93.999c0 16 -2.33301 26.333 -7 31c-4.66699 7.33301 -11.334 11 -20.001 11c-14 0 -32.333 -7.66699 -55 -23l-37 56c32 43.333 67 64.666 105 63.999
c56 -1.33301 84 -30.666 84 -87.999c0 -43.333 -13 -82.666 -39 -117.999c33.333 9.33301 78 23.333 134 42c-26.667 33.333 -40 69.333 -40 108c0 44.667 19.667 83.334 59 116.001c34 28.667 68 43 102 43c44 0 84 -14 120 -42c38.667 -29.333 58 -65.666 58 -108.999z
M476.998 1893c0 21.333 -7.83301 39.1699 -23.5 53.5029s-34.167 21.5 -55.5 21.5c-20.667 0 -39 -7.33301 -55 -22s-24 -32.334 -24 -53.001s8 -38.334 24 -53.001s34.333 -22 55 -22c21.333 0 39.833 7.16699 55.5 21.5s23.5 32.166 23.5 53.499z" />
    <glyph glyph-name="uFC5F" unicode="&#x651;&#x64d;" arabic-form="isolated" 
d="M590 1885c0 -38 -9.66602 -70.002 -28.999 -96.002c-21.333 -28.667 -50.333 -43 -87 -43c-64 0 -114.333 25.667 -151 77c-36.667 -86 -95.334 -129 -176.001 -129c-34.667 0 -62.667 13 -84 39c-20 24 -30 53.667 -30 89c0 46.667 14.333 104.334 43 173.001l64 -33
c-18.667 -48.667 -28 -81.667 -28 -99c0 -45.333 18.333 -68 55 -68c71.333 0 106 61.333 104 184l85 46c2.66699 -120.667 34.667 -181 96 -181c38 0 57 21 57 63c0 22 -16.333 58.667 -49 110l68 49c41.333 -59.333 62 -119.666 62 -180.999zM602.001 1603l-526 -130
l-24 78l526 136zM602.001 1413l-526 -130l-24 78l526 136z" />
    <glyph glyph-name="uFC60" unicode="&#x651;&#x64e;" arabic-form="isolated" 
d="M567 1442c0 -38.667 -9.66992 -70.667 -29.0029 -96c-21.333 -28.667 -50.666 -43 -87.999 -43c-64 0 -114 25.667 -150 77c-38 -86 -96.667 -129 -176 -129c-35.333 0 -63.333 12.5 -84 37.5s-31 55.167 -31 90.5c0 46 14.667 103.333 44 172l63 -32
c-18.667 -52 -28 -85 -28 -99c0 -45.333 18.333 -68 55 -68c72.667 0 107.334 61.333 104.001 184l86 46c2.66699 -120.667 34.334 -181 95.001 -181c38.667 0 58 21 58 63c0 23.333 -16.333 59.666 -49 108.999l67 50c42 -59.333 63 -119.666 63 -180.999zM550.997 1757
l-526 -130l-24 77l525 138z" />
    <glyph glyph-name="uFC61" unicode="&#x651;&#x64f;" arabic-form="isolated" 
d="M588 1917c0 -89.333 -56 -147.333 -168 -174l-357 -85l-20 74c99.333 21.333 181.333 44.333 246 69c-26.667 32.667 -40 69 -40 109s17 76.5 51 109.5s71 49.5 111 49.5c43.333 0 83 -14.333 119 -43c38.667 -30 58 -66.333 58 -109zM582 1469
c0 -38 -9.66504 -69.998 -28.998 -95.998c-21.333 -28.667 -50.333 -43 -87 -43c-64 0 -114.333 25.667 -151 77c-36.667 -86 -95.334 -129 -176.001 -129c-34.667 0 -62.334 12.667 -83.001 38s-31 55.666 -31 90.999c0 47.333 14.333 104.666 43 171.999l64 -33
c-18.667 -48 -28 -80.667 -28 -98c0 -45.333 18.333 -68 55 -68c71.333 0 106 61 104 183l85 47c2.66699 -120.667 34.667 -181 96 -181c38 0 57 20.667 57 62c0 22 -16.333 58.667 -49 110l68 49c41.333 -58.667 62 -119 62 -181zM496.002 1905
c0 21.333 -7.83301 39 -23.5 53s-34.167 21 -55.5 21s-39.833 -7 -55.5 -21s-23.5 -31.667 -23.5 -53s7.83301 -39 23.5 -53s34.167 -21 55.5 -21s39.833 7 55.5 21s23.5 31.667 23.5 53z" />
    <glyph glyph-name="uFC62" unicode="&#x651;&#x650;" arabic-form="isolated" 
d="M566 1615c0 -38 -9.66602 -70.002 -28.999 -96.002c-21.333 -28.667 -50.333 -43 -87 -43c-64 0 -114.333 25.667 -151 77c-36.667 -86 -95.334 -129 -176.001 -129c-34.667 0 -62.667 13 -84 39c-20 24 -30 53.667 -30 89c0 46.667 14.333 104.334 43 173.001l64 -33
c-18.667 -48.667 -28 -81.667 -28 -99c0 -45.333 18.333 -68 55 -68c71.333 0 106 61.333 104 184l85 46c2.66699 -120.667 34.667 -181 96 -181c38 0 57 21 57 63c0 22 -16.333 58.667 -49 110l68 49c41.333 -59.333 62 -119.666 62 -180.999zM578.001 1333l-526 -130
l-24 78l526 136z" />
    <glyph glyph-name="uFDF2" unicode="&#xfedf;&#xfee0;&#xfeea;" horiz-adv-x="1640" arabic-form="isolated" 
d="M1133 1521l-26 -206h-35l-20 206h81zM1371 1121c0 -38.667 -10.665 -71.0029 -31.998 -97.0029c-22.667 -28 -52.667 -42 -90 -42c-70.667 0 -122.334 30 -155.001 90c-40 -68.667 -95.667 -103 -167 -103c-35.333 0 -63.333 14 -84 42c-19.333 25.333 -29 56.333 -29 93
c0 41.333 14 95.333 42 162l65 -32c-19.333 -49.333 -29 -84.666 -29 -105.999c0 -39.333 18.333 -59 55 -59c72 0 106.667 64 104 192h79c1.33301 -121.333 35.666 -182 102.999 -182c35.333 0 53 21 53 63c0 22.667 -15.333 59.334 -46 110.001l68 50
c42 -59.333 63 -119.666 63 -180.999zM1637 360.997c0 -56 -5.00098 -108.999 -15.001 -158.999c-26.667 -134 -110 -201 -250 -201c-122 0 -204.667 64.333 -248 193c-35.333 -133.333 -114.666 -200 -237.999 -200c-125.333 0 -210.333 67.667 -255 203
c-65.333 -12.667 -117.666 -19 -156.999 -19c-80 0 -148.333 14 -205 42c-72.667 36 -109 90 -109 162c0 105.333 121.333 201.666 364 288.999l-20 112l129 40l77 -438c24.667 -138.667 81.667 -208 171 -208c90 0 135 66.667 135 200v529h168v-423
c0 -76.667 11.333 -141.667 34 -195c31.333 -74 80 -111 146 -111c49.333 0 81.666 15.667 96.999 47c10 20 15 58.667 15 116v566h161v-545zM586.001 338.998l-45 222c-166 -49.333 -249 -103 -249 -161c0 -47.333 53 -73.333 159 -78c46.667 -2 91.667 3.66699 135 17z
" />
    <glyph glyph-name="uFEF5" unicode="&#xfedf;&#xfe82;" horiz-adv-x="1101" arabic-form="isolated" 
d="M1094 489c0 -157.333 -59.6699 -280.332 -179.003 -368.999c-107.333 -79.333 -242.666 -119 -405.999 -119c-118.667 0 -202 17.667 -250 53v124c98.667 4 182.334 8 251.001 12c136.667 7.33301 211.334 14.666 224.001 21.999l-422 794l130 85l410 -808
c58 53.333 87 143 87 269v606h155v-669zM860.997 1299c-134 -74.667 -273.665 -112 -418.998 -112c-33.333 0 -81 12.5 -143 37.5s-88 37.5 -78 37.5c-10.667 0 -29.334 -22.667 -56.001 -68l-103 63c56 100 98.667 150 128 150c3.33301 0 38.833 -14.333 106.5 -43
s121.5 -43 161.5 -43c127.333 0 261.666 34.333 402.999 103v-125z" />
    <glyph glyph-name="uFEF6" unicode="&#xfee0;&#xfe82;" horiz-adv-x="1302" arabic-form="final" 
d="M1329 1l-68.002 0.000976562c-58 0 -114.667 14.667 -170 44c-57.333 30 -100 69.333 -128 118c-106.667 -108 -258 -162 -454 -162c-118.667 0 -202 17.667 -250 53v124c98.667 4 182.334 8 251.001 12c136.667 7.33301 211.334 14.666 224.001 21.999l-422 794l130 85
l410 -808c58 53.333 87 143 87 269v606h155v-659c0 -102 -18.333 -178 -55 -228c62 -62 133.333 -93 214 -93h76v-177zM860.998 1299c-134 -74.667 -273.665 -112 -418.998 -112c-33.333 0 -81 12.5 -143 37.5s-88 37.5 -78 37.5c-10.667 0 -29.334 -22.667 -56.001 -68
l-103 63c56 100 98.667 150 128 150c3.33301 0 38.833 -14.333 106.5 -43s121.5 -43 161.5 -43c127.333 0 261.666 34.333 402.999 103v-125z" />
    <glyph glyph-name="uFEF7" unicode="&#xfedf;&#xfe84;" horiz-adv-x="1004" arabic-form="isolated" 
d="M1002 489c0 -159.333 -59.334 -282.666 -178.001 -369.999c-105.333 -78.667 -240.333 -118 -405 -118c-120 0 -203.333 17.667 -250 53v124c98.667 4 182 8 250 12c136.667 7.33301 211.334 14.666 224.001 21.999l-422 794l130 85l411 -808
c57.333 53.333 86 143 86 269v606h154v-669zM565.999 1354l-464.001 -153l-28 74l166 55c-32.667 32 -49 74.333 -49 127c0 45.333 22.333 80.666 67 105.999c36.667 21.333 79.334 32 128.001 32c20 0 40.333 -1.66699 61 -5v-68c-14.667 2 -29 3 -43 3
c-86.667 0 -130 -26.667 -130 -80c0 -19.333 8.5 -35.666 25.5 -48.999s35.5 -20 55.5 -20c24.667 0 86.667 17.667 186 53z" />
    <glyph glyph-name="uFEF8" unicode="&#xfee0;&#xfe84;" horiz-adv-x="1166" arabic-form="final" 
d="M1193 1l-67.999 0.000976562c-58 0 -114.667 14.667 -170 44c-57.333 30 -100 69.333 -128 118c-106.667 -108 -257.667 -162 -453 -162c-120 0 -203.667 17.667 -251 53v124c98 4 181.667 8 251 12c136.667 7.33301 211 14.666 223 21.999l-421 794l130 85l410 -808
c58 53.333 87 143 87 269v606h154v-659c0 -102 -18 -178 -54 -228c63.333 -62 134.666 -93 213.999 -93h76v-177zM566.001 1354l-464.001 -153l-28 74l166 55c-32.667 32 -49 74.333 -49 127c0 45.333 22.333 80.666 67 105.999c36.667 21.333 79.334 32 128.001 32
c20 0 40.333 -1.66699 61 -5v-68c-14.667 2 -29 3 -43 3c-86.667 0 -130 -26.667 -130 -80c0 -19.333 8.5 -35.666 25.5 -48.999s35.5 -20 55.5 -20c24.667 0 86.667 17.667 186 53z" />
    <glyph glyph-name="uFEF9" unicode="&#xfedf;&#xfe88;" horiz-adv-x="914" arabic-form="isolated" 
d="M912 489c0 -158.667 -59.334 -281.999 -178.001 -369.999c-106.667 -78.667 -242 -118 -406 -118c-119.333 0 -202.666 17.667 -249.999 53v124c98 4 181.667 8 251 12c136.667 7.33301 211 14.666 223 21.999l-421 794l130 85l410 -808c58 53.333 87 143 87 269v606h154
v-669zM565.999 -359.999l-464 -152.999l-28 74l166 56c-32.667 30.667 -49 73 -49 127c0 45.333 22.333 80.666 67 105.999c36.667 21.333 79.334 32 128.001 32c20 0 40.333 -1.66699 61 -5v-69c-14.667 2.66699 -29 4 -43 4c-86.667 0 -130 -27 -130 -81
c0 -19.333 8.66699 -35.5 26 -48.5s35.666 -19.5 54.999 -19.5c24.667 0 86.667 17.333 186 52z" />
    <glyph glyph-name="uFEFA" unicode="&#xfee0;&#xfe88;" horiz-adv-x="1121" arabic-form="final" 
d="M1148 1h-69.001c-58 0 -115 14.833 -171 44.5s-98 68.834 -126 117.501c-106.667 -108 -258 -162 -454 -162c-119.333 0 -202.666 17.667 -249.999 53v124c98 4 181.667 8 251 12c136.667 7.33301 211 14.666 223 21.999l-421 794l130 85l410 -808
c58 53.333 87 143 87 269v606h154v-659c0 -102 -18 -178 -54 -228c62 -62 133.333 -93 214 -93h76v-177zM565.999 -360l-464 -152.999l-28 74l166 56c-32.667 30.667 -49 73 -49 127c0 45.333 22.333 80.666 67 105.999c36.667 21.333 79.334 32 128.001 32
c20 0 40.333 -1.66699 61 -5v-69c-14.667 2.66699 -29 4 -43 4c-86.667 0 -130 -27 -130 -81c0 -19.333 8.66699 -35.5 26 -48.5s35.666 -19.5 54.999 -19.5c24.667 0 86.667 17.333 186 52z" />
    <glyph glyph-name="uFEFB" unicode="&#xfedf;&#xfe8e;" horiz-adv-x="914" arabic-form="isolated" 
d="M912 489c0 -158.667 -59.334 -281.999 -178.001 -369.999c-106.667 -78.667 -242 -118 -406 -118c-119.333 0 -202.666 17.667 -249.999 53v124c98 4 181.667 8 251 12c136.667 7.33301 211 14.666 223 21.999l-421 794l130 85l410 -808c58 53.333 87 143 87 269v606h154
v-669z" />
    <glyph glyph-name="uFEFC" unicode="&#xfee0;&#xfe8e;" horiz-adv-x="1121" arabic-form="final" 
d="M1148 1h-69.001c-58 0 -115 14.833 -171 44.5s-98 68.834 -126 117.501c-106.667 -108 -258 -162 -454 -162c-119.333 0 -202.666 17.667 -249.999 53v124c98 4 181.667 8 251 12c136.667 7.33301 211 14.666 223 21.999l-421 794l130 85l410 -808
c58 53.333 87 143 87 269v606h154v-659c0 -102 -18 -178 -54 -228c62 -62 133.333 -93 214 -93h76v-177z" />
    <glyph glyph-name="u0652_u064E.liga" unicode="&#x652;&#x64e;" horiz-adv-x="1" 
d="M185 1321l-1 -300l-71 -2l4 300z" />
    <glyph glyph-name="u0652_u064B.liga" unicode="&#x652;&#x64b;" horiz-adv-x="1" 
d="M482 900h-158v158h158v-158zM266 900h-158v158h158v-158z" />
    <glyph glyph-name="u0652_u064D.liga" unicode="&#x652;&#x64d;" horiz-adv-x="1" 
d="M880 -784h-158v158h158v-158zM664 -784h-158v158h158v-158z" />
    <glyph glyph-name="u0622" unicode="&#x622;" horiz-adv-x="897" arabic-form="isolated" 
d="M897 1309c-132 -74.667 -271.334 -112 -418.001 -112c-33.333 0 -81.333 12.333 -144 37s-89 37 -79 37c-9.33301 0 -27.666 -22.667 -54.999 -68l-103 62c56.667 101.333 99 152 127 152c3.33301 0 38.833 -14.5 106.5 -43.5s121.834 -43.5 162.501 -43.5
c127.333 0 261.666 34.667 402.999 104v-125zM613.999 1h-167v1158h167v-1158z" />
    <glyph glyph-name="u0623" unicode="&#x623;" horiz-adv-x="581" arabic-form="isolated" 
d="M612 1331l-465 -153l-28 74l166 56c-32.667 30.667 -49 73 -49 127c0 44.667 22.333 80 67 106c37.333 21.333 80.333 32 129 32c19.333 0 39.333 -1.66699 60 -5v-69c-14 2.66699 -28 4 -42 4c-86.667 0 -130 -27 -130 -81c0 -19.333 8.5 -35.5 25.5 -48.5
s35.5 -19.5 55.5 -19.5c24 0 85.667 17.333 185 52zM452 1h-168v1158h168v-1158z" />
    <glyph glyph-name="u0624" unicode="&#x624;" horiz-adv-x="936" arabic-form="isolated" 
d="M712 892l-464.999 -153.999l-27 75l164 55c-32.667 32 -49 74.333 -49 127c0 45.333 22.333 80.666 67 105.999c37.333 21.333 80.333 32 129 32c19.333 0 39.666 -1.66699 60.999 -5v-68c-14.667 2 -29 3 -43 3c-30.667 0 -58.334 -5.66699 -83.001 -17
c-30.667 -14.667 -46 -35.667 -46 -63c0 -20 8.33301 -36.5 25 -49.5s35.334 -19.5 56.001 -19.5c24 0 86 17.667 186 53zM919.001 240.001c0 -239.333 -246.999 -478 -740.999 -716l-78 134c113.333 52 223.666 113 330.999 183c162.667 106 270 207 322 303h-120
c-88 0 -156 24.167 -204 72.5s-72 116.5 -72 204.5c0 64 23.667 118.667 71 164s103 68 167 68c74 0 142 -29.667 204 -89c80 -76 120 -184 120 -324zM763.002 318.001c-2 50.667 -24 94.667 -66 132c-36 32 -69.667 48 -101 48c-25.333 0 -49 -8 -71 -24
c-24 -17.333 -36 -38.333 -36 -63c0 -62 38.333 -93 115 -93h159z" />
    <glyph glyph-name="u0625" unicode="&#x625;" horiz-adv-x="662" arabic-form="isolated" 
d="M479 1h-168v1158h168v-1158zM612 -347l-465.001 -152.999l-28 74l166 56c-32.667 31.333 -49 73.666 -49 126.999c0 44.667 22.333 80 67 106c37.333 21.333 80.333 32 129 32c19.333 0 39.333 -1.66699 60 -5v-68c-14 2.66699 -27.667 4 -41 4
c-87.333 0 -131 -27 -131 -81c0 -20 8.33301 -36.5 25 -49.5s35.334 -19.5 56.001 -19.5c21.333 0 83 17.333 185 52z" />
    <glyph glyph-name="u0626" unicode="&#x626;" horiz-adv-x="1423" arabic-form="isolated" 
d="M1417 666l-65 -127.998c-54 28 -105.667 42 -155 42c-92.667 0 -184 -53 -274 -159c-15.333 -18 -23 -35.333 -23 -52c0 -29.333 18 -45.333 54 -48l275 -19c106.667 -8 160 -65 160 -171c0 -89.333 -66 -185.333 -198 -288c-150.667 -116.667 -322 -175 -514 -175
c-153.333 0 -276.333 37.333 -369 112c-100.667 81.333 -151 197 -151 347c0 101.333 16 192.666 48 273.999l123 -41c-22 -75.333 -33 -136.333 -33 -183c0 -226.667 131.333 -340 394 -340c92.667 0 185.667 16.667 279 50c118 42 204.333 103 259 183
c12 17.333 18 32.333 18 45c0 19.333 -15.667 29 -47 29c-147.333 1.33301 -241.333 6.33301 -282 15c-114 25.333 -171 84.666 -171 177.999c0 84.667 51.667 172.667 155 264c101.333 89.333 195 134 281 134s164.667 -23 236 -69zM566 737.002l-464.001 -153l-28 75
l166 55c-32.667 30.667 -49 73 -49 127c0 45.333 22.333 80.666 67 105.999c36.667 21.333 79.334 32 128.001 32c20 0 40.333 -1.66699 61 -5v-68c-14.667 2 -29 3 -43 3c-86.667 0 -130 -26.667 -130 -80c0 -19.333 8.5 -35.666 25.5 -48.999s35.5 -20 55.5 -20
c24.667 0 86.667 17.667 186 53z" />
    <glyph glyph-name="u0627" unicode="&#x627;" horiz-adv-x="326" arabic-form="isolated" 
d="M325 1h-168v1158h168v-1158z" />
    <glyph glyph-name="u0628" unicode="&#x628;" horiz-adv-x="1624" arabic-form="isolated" 
d="M1621 241c0 -72.667 -25.667 -131.333 -77 -176c-48.667 -42.667 -109.667 -64 -183 -64h-914c-87.333 0 -157.5 28.333 -210.5 85s-79.5 129 -79.5 217v71h149v-34c0 -108 52 -162 156 -162h883c81.333 0 122 23.333 122 70c0 23.333 -10.333 55.333 -31 96l-79 155
l130 85l91 -187c28.667 -58.667 43 -110.667 43 -156zM952 -333.999h-159v157h159v-157z" />
    <glyph glyph-name="u0629" unicode="&#x629;" horiz-adv-x="876" arabic-form="isolated" 
d="M616 919l-463.999 -153l-28 74l165 55c-32.667 30.667 -49 73 -49 127c0 44.667 22.333 80 67 106c37.333 21.333 80.333 32 129 32c19.333 0 39.666 -1.33301 60.999 -4v-69c-14.667 2 -29 3 -43 3c-86 0 -129 -26.667 -129 -80c0 -20 8.33301 -36.5 25 -49.5
s35 -19.5 55 -19.5c24 0 86 17.667 186 53zM869.001 275c0 -94.667 -39 -166.333 -117 -215c-63.333 -39.333 -141 -59 -233 -59c-241.333 0 -362 120.333 -362 361c0 78.667 19 147.667 57 207c44 68 103.333 102 178 102c92 0 192.333 -40.333 301 -121
c117.333 -87.333 176 -179 176 -275zM725.001 281.001c0 47.333 -44.333 100.333 -133 159c-82 54.667 -144.667 82 -188 82c-34 0 -60.667 -20.333 -80 -61c-15.333 -32.667 -23 -68 -23 -106c0 -58.667 21 -103.667 63 -135c37.333 -28 86.333 -42 147 -42
c142.667 0 214 34.333 214 103z" />
    <glyph glyph-name="u062A" unicode="&#x62a;" horiz-adv-x="1624" arabic-form="isolated" 
d="M1018 487h-158v157h158v-157zM802 487h-158v157h158v-157zM1621 241c0 -72.667 -25.667 -131.333 -77 -176c-48.667 -42.667 -109.667 -64 -183 -64h-914c-87.333 0 -157.5 28.333 -210.5 85s-79.5 129 -79.5 217v71h149v-34c0 -108 52 -162 156 -162h883
c81.333 0 122 23.333 122 70c0 23.333 -10.333 55.333 -31 96l-79 155l130 85l91 -187c28.667 -58.667 43 -110.667 43 -156z" />
    <glyph glyph-name="u062B" unicode="&#x62b;" horiz-adv-x="1624" arabic-form="isolated" 
d="M911 692h-159v158h159v-158zM1018 489h-158v158h158v-158zM802 489h-158v158h158v-158zM1621 241c0 -72.667 -25.667 -131.333 -77 -176c-48.667 -42.667 -109.667 -64 -183 -64h-914c-87.333 0 -157.5 28.333 -210.5 85s-79.5 129 -79.5 217v71h149v-34
c0 -108 52 -162 156 -162h883c81.333 0 122 23.333 122 70c0 23.333 -10.333 55.333 -31 96l-79 155l130 85l91 -187c28.667 -58.667 43 -110.667 43 -156z" />
    <glyph glyph-name="u062C" unicode="&#x62c;" horiz-adv-x="1247" arabic-form="isolated" 
d="M1277 -614c-174.667 -81.333 -346.999 -121.999 -516.999 -121.999c-156 0 -285.333 32 -388 96c-143.333 89.333 -215 233 -215 431c0 162.667 91.667 316 275 460c96 75.333 236 157.333 420 246c-228.667 14.667 -362.667 22 -402 22
c-66.667 0 -128.334 -20.667 -185.001 -62l-55 122c78 60.667 165.333 88.667 262 84l760 -37v-152c-118.667 0 -281 -57 -487 -171c-297.333 -164.667 -446 -344.667 -446 -540c0 -110.667 52 -197.334 156 -260.001c87.333 -52.667 190.333 -79 309 -79
c152 0 301 31.333 447 94zM857.001 -216.999h-159v158h159v-158z" />
    <glyph glyph-name="u062D" unicode="&#x62d;" horiz-adv-x="1247" arabic-form="isolated" 
d="M1277 -614c-174.667 -81.333 -346.999 -121.999 -516.999 -121.999c-156 0 -285.333 32 -388 96c-143.333 89.333 -215 233 -215 431c0 162.667 91.667 316 275 460c96 75.333 236 157.333 420 246c-228.667 14.667 -362.667 22 -402 22
c-66.667 0 -128.334 -20.667 -185.001 -62l-55 122c78 60.667 165.333 88.667 262 84l760 -37v-152c-118.667 0 -281 -57 -487 -171c-297.333 -164.667 -446 -344.667 -446 -540c0 -110.667 52 -197.334 156 -260.001c87.333 -52.667 190.333 -79 309 -79
c152 0 301 31.333 447 94z" />
    <glyph glyph-name="u062E" unicode="&#x62e;" horiz-adv-x="1247" arabic-form="isolated" 
d="M798 858h-159v158h159v-158zM1277 -614c-174.667 -81.333 -346.999 -121.999 -516.999 -121.999c-156 0 -285.333 32 -388 96c-143.333 89.333 -215 233 -215 431c0 162.667 91.667 316 275 460c96 75.333 236 157.333 420 246c-228.667 14.667 -362.667 22 -402 22
c-66.667 0 -128.334 -20.667 -185.001 -62l-55 122c78 60.667 165.333 88.667 262 84l760 -37v-152c-118.667 0 -281 -57 -487 -171c-297.333 -164.667 -446 -344.667 -446 -540c0 -110.667 52 -197.334 156 -260.001c87.333 -52.667 190.333 -79 309 -79
c152 0 301 31.333 447 94z" />
    <glyph glyph-name="u062F" unicode="&#x62f;" horiz-adv-x="1000" arabic-form="isolated" 
d="M998 245c0 -83.333 -29.333 -145.999 -88 -187.999c-51.333 -37.333 -120.333 -56 -207 -56h-260c-127.333 0 -225 53.333 -293 160l107 107c32.667 -40.667 60 -66.334 82 -77.001c18 -8.66699 47.333 -13 88 -13h286c83.333 0 125 22.333 125 67
c0 19.333 -19.333 51.333 -58 96l-338 392l117 112l335 -397c69.333 -82 104 -149.667 104 -203z" />
    <glyph glyph-name="u0630" unicode="&#x630;" horiz-adv-x="1001" arabic-form="isolated" 
d="M558 980h-159v158h159v-158zM998 245c0 -83.333 -29.333 -145.999 -88 -187.999c-51.333 -37.333 -120.333 -56 -207 -56h-260c-127.333 0 -225 53.333 -293 160l107 107c32.667 -40.667 60 -66.334 82 -77.001c18 -8.66699 47.333 -13 88 -13h286
c83.333 0 125 22.333 125 67c0 19.333 -19.333 51.333 -58 96l-338 392l117 112l335 -397c69.333 -82 104 -149.667 104 -203z" />
    <glyph glyph-name="u0631" unicode="&#x631;" horiz-adv-x="924" arabic-form="isolated" 
d="M885 546c26 -49.333 39 -101.001 39 -155.001c0 -75.333 -25.667 -151.333 -77 -228c-106 -158.667 -335.333 -329.334 -688 -512.001l-75 140c326 172.667 539 331.334 639 476.001c29.333 42.667 44 82.334 44 119.001c0 36 -11.333 74.333 -34 115l-102 183l137 84z
" />
    <glyph glyph-name="u0632" unicode="&#x632;" horiz-adv-x="924" arabic-form="isolated" 
d="M780 903h-159v158h159v-158zM885 546c26 -49.333 39 -101.001 39 -155.001c0 -75.333 -25.667 -151.333 -77 -228c-106 -158.667 -335.333 -329.334 -688 -512.001l-75 140c326 172.667 539 331.334 639 476.001c29.333 42.667 44 82.334 44 119.001
c0 36 -11.333 74.333 -34 115l-102 183l137 84z" />
    <glyph glyph-name="u0633" unicode="&#x633;" horiz-adv-x="2152" arabic-form="isolated" 
d="M2150 252c0 -172.667 -102.003 -259.002 -306.003 -259.002c-98.667 0 -169 41.333 -211 124c-43.333 -77.333 -100.666 -116 -171.999 -116c-52.667 0 -101 14 -145 42c0 -135.333 -19.333 -238.333 -58 -309c-50.667 -93.333 -129.334 -166.333 -236.001 -219
c-98 -49.333 -203.333 -74 -316 -74c-180 0 -319.333 49 -418 147c-86.667 86 -130 195 -130 327c0 119.333 26 234 78 344l129 -39c-38 -104 -57 -196.667 -57 -278c0 -121.333 47.333 -210.666 142 -267.999c68.667 -41.333 150.334 -62 245.001 -62
c118.667 0 222.334 27 311.001 81c104 63.333 156 151 156 263c0 16.667 -2 36.334 -6 59.001c-22 124 -74.333 256.667 -157 398l133 84c60.667 -108.667 100.334 -175.667 119.001 -201c60 -81.333 119 -122 177 -122c39.333 0 66.666 6.83301 81.999 20.5
s23 39.834 23 78.501v270h144v-77c0 -198 68.667 -297 206 -297c72 0 108 30.667 108 92c0 25.333 -14.333 63.666 -43 114.999l-69 121l129 87c38.667 -66 67.334 -117.333 86.001 -154c37.333 -74 56 -133.333 56 -178z" />
    <glyph glyph-name="u0634" unicode="&#x634;" horiz-adv-x="2154" arabic-form="isolated" 
d="M1680 928h-159v158h159v-158zM1787 725h-159v158h159v-158zM1572 725h-159v158h159v-158zM2150 252c0 -172.667 -102.003 -259.002 -306.003 -259.002c-98.667 0 -169 41.333 -211 124c-43.333 -77.333 -100.666 -116 -171.999 -116c-52.667 0 -101 14 -145 42
c0 -135.333 -19.333 -238.333 -58 -309c-50.667 -93.333 -129.334 -166.333 -236.001 -219c-98 -49.333 -203.333 -74 -316 -74c-180 0 -319.333 49 -418 147c-86.667 86 -130 195 -130 327c0 119.333 26 234 78 344l129 -39c-38 -104 -57 -196.667 -57 -278
c0 -121.333 47.333 -210.666 142 -267.999c68.667 -41.333 150.334 -62 245.001 -62c118.667 0 222.334 27 311.001 81c104 63.333 156 151 156 263c0 16.667 -2 36.334 -6 59.001c-22 124 -74.333 256.667 -157 398l133 84c60.667 -108.667 100.334 -175.667 119.001 -201
c60 -81.333 119 -122 177 -122c39.333 0 66.666 6.83301 81.999 20.5s23 39.834 23 78.501v270h144v-77c0 -198 68.667 -297 206 -297c72 0 108 30.667 108 92c0 25.333 -14.333 63.666 -43 114.999l-69 121l129 87c38.667 -66 67.334 -117.333 86.001 -154
c37.333 -74 56 -133.333 56 -178z" />
    <glyph glyph-name="u0635" unicode="&#x635;" horiz-adv-x="2203" arabic-form="isolated" 
d="M2200 370c0 -127.333 -43.6689 -224.003 -131.002 -290.003c-69.333 -52.667 -153.666 -79 -252.999 -79h-335c-71.333 0 -126.333 14 -165 42c0 -135.333 -19.333 -238.333 -58 -309c-50.667 -93.333 -129.334 -166.333 -236.001 -219
c-98 -49.333 -203.333 -74 -316 -74c-180 0 -319.333 49 -418 147c-86.667 86 -130 195 -130 327c0 119.333 26 234 78 344l129 -39c-38 -112 -57 -204.667 -57 -278c0 -121.333 47.333 -210.666 142 -267.999c68.667 -41.333 150.334 -62 245.001 -62
c118.667 0 222.334 27 311.001 81c104 63.333 156 151 156 263c0 16.667 -2 36.334 -6 59.001c-22 124 -74.333 256.667 -157 398l133 84l78 -155c23.333 -43.333 53 -81.666 89 -114.999c202.667 286.667 401.667 430 597 430c82 0 152.667 -27 212 -81
c61.333 -56 92 -124.667 92 -206zM2048 358.997c0 42.667 -15.5 76.667 -46.5 102s-68.167 38 -111.5 38c-146 0 -307 -95.667 -483 -287c-8 -8.66699 -12 -15.667 -12 -21c0 -8.66699 12.667 -13 38 -13h397c73.333 0 130 21 170 63c32 34 48 73.333 48 118z" />
    <glyph glyph-name="u0636" unicode="&#x636;" horiz-adv-x="2205" arabic-form="isolated" 
d="M1918 867h-158v158h158v-158zM2200 370c0 -127.333 -43.6689 -224.003 -131.002 -290.003c-69.333 -52.667 -153.666 -79 -252.999 -79h-335c-71.333 0 -126.333 14 -165 42c0 -135.333 -19.333 -238.333 -58 -309c-50.667 -93.333 -129.334 -166.333 -236.001 -219
c-98 -49.333 -203.333 -74 -316 -74c-180 0 -319.333 49 -418 147c-86.667 86 -130 195 -130 327c0 119.333 26 234 78 344l129 -39c-38 -112 -57 -204.667 -57 -278c0 -121.333 47.333 -210.666 142 -267.999c68.667 -41.333 150.334 -62 245.001 -62
c118.667 0 222.334 27 311.001 81c104 63.333 156 151 156 263c0 16.667 -2 36.334 -6 59.001c-22 124 -74.333 256.667 -157 398l133 84l78 -155c23.333 -43.333 53 -81.666 89 -114.999c202.667 286.667 401.667 430 597 430c82 0 152.667 -27 212 -81
c61.333 -56 92 -124.667 92 -206zM2048 358.997c0 42.667 -15.5 76.667 -46.5 102s-68.167 38 -111.5 38c-146 0 -307 -95.667 -483 -287c-8 -8.66699 -12 -15.667 -12 -21c0 -8.66699 12.667 -13 38 -13h397c73.333 0 130 21 170 63c32 34 48 73.333 48 118z" />
    <glyph glyph-name="u0637" unicode="&#x637;" horiz-adv-x="1450" arabic-form="isolated" 
d="M1448 370c0 -123.333 -42.334 -218.333 -127.001 -285c-70.667 -56 -156.667 -84 -258 -84h-698c-83.333 0 -152.666 19.333 -207.999 58v119h233c72.667 0 109 51.667 109 155v824h138v-801c59.333 73.333 128 137 206 191c106 73.333 206 110 300 110
c83.333 0 154.333 -27 213 -81c61.333 -55.333 92 -124 92 -206zM1296 359c0 42.667 -15.5 76.667 -46.5 102s-68.167 38 -111.5 38c-158.667 0 -332 -107 -520 -321h460c58.667 0 108.667 15 150 45c45.333 34 68 79.333 68 136z" />
    <glyph glyph-name="u0638" unicode="&#x638;" horiz-adv-x="1451" arabic-form="isolated" 
d="M1166 867h-159v158h159v-158zM1448 370c0 -123.333 -42.334 -218.333 -127.001 -285c-70.667 -56 -156.667 -84 -258 -84h-698c-83.333 0 -152.666 19.333 -207.999 58v119h233c72.667 0 109 51.667 109 155v824h138v-801c59.333 73.333 128 137 206 191
c106 73.333 206 110 300 110c83.333 0 154.333 -27 213 -81c61.333 -55.333 92 -124 92 -206zM1296 359c0 42.667 -15.5 76.667 -46.5 102s-68.167 38 -111.5 38c-158.667 0 -332 -107 -520 -321h460c58.667 0 108.667 15 150 45c45.333 34 68 79.333 68 136z" />
    <glyph glyph-name="u0639" unicode="&#x639;" horiz-adv-x="1066" arabic-form="isolated" 
d="M1246 -540c-112.667 -45.333 -188.668 -73.332 -228.001 -83.999c-100 -28 -209.333 -42 -328 -42c-134.667 0 -253.667 35.333 -357 106c-116.667 80 -175 184.333 -175 313c0 109.333 24.667 203.333 74 282c43.333 68.667 113.333 136.667 210 204
c-106 79.333 -159 173.666 -159 282.999c0 82 30.333 150 91 204c54.667 49.333 124.334 80.333 209.001 93c66.667 10 142.334 11.667 227.001 5v-134c-108.667 4.66699 -184.667 -1 -228 -17c-94 -34.667 -141 -85.667 -141 -153c0 -48.667 17.667 -87 53 -115
c32 -25.333 73 -38 123 -38c38 0 163.667 42 377 126l51 -120c-490.667 -178 -736 -369.333 -736 -574c0 -102 46.667 -180.333 140 -235c77.333 -45.333 170.666 -68 279.999 -68c144 0 296.333 31 457 93z" />
    <glyph glyph-name="u063A" unicode="&#x63a;" horiz-adv-x="1066" arabic-form="isolated" 
d="M803 988h-159v158h159v-158zM1246 -540c-112.667 -45.333 -188.668 -73.332 -228.001 -83.999c-100 -28 -209.333 -42 -328 -42c-134.667 0 -253.667 35.333 -357 106c-116.667 80 -175 184.333 -175 313c0 109.333 24.667 203.333 74 282
c43.333 68.667 113.333 136.667 210 204c-106 79.333 -159 173.666 -159 282.999c0 82 30.333 150 91 204c54.667 49.333 124.334 80.333 209.001 93c66.667 10 142.334 11.667 227.001 5v-134c-108.667 4.66699 -184.667 -1 -228 -17c-94 -34.667 -141 -85.667 -141 -153
c0 -48.667 17.667 -87 53 -115c32 -25.333 73 -38 123 -38c38 0 163.667 42 377 126l51 -120c-490.667 -178 -736 -369.333 -736 -574c0 -102 46.667 -180.333 140 -235c77.333 -45.333 170.666 -68 279.999 -68c144 0 296.333 31 457 93z" />
    <glyph glyph-name="u0641" unicode="&#x641;" horiz-adv-x="1632" arabic-form="isolated" 
d="M1380 949h-159v157h159v-157zM1628 349c0 -106 -26.335 -189.666 -79.002 -250.999c-55.333 -64.667 -135.333 -97 -240 -97h-846c-98 0 -174 29.333 -228 88c-52 56.667 -78 134.667 -78 234v62h147v-48c0 -106 49.667 -159 149 -159h867c94 0 147 40 159 120h-143
c-76.667 0 -139 21.167 -187 63.5s-72.667 101.5 -74 177.5c-1.33301 61.333 17.334 117.666 56.001 168.999c41.333 54.667 92 82 152 82c108.667 0 195.334 -48 260.001 -144c56.667 -84 85 -183 85 -297zM1474 460.001c-49.333 118.667 -110.333 178 -183 178
c-28 0 -51 -9.66699 -69 -29s-27 -43 -27 -71c0 -52 40.333 -78 121 -78h158z" />
    <glyph glyph-name="u0642" unicode="&#x642;" horiz-adv-x="1295" arabic-form="isolated" 
d="M1173 827h-158v158h158v-158zM957 827h-158v158h158v-158zM1293 201c0 -164.667 -65 -298.334 -195 -401.001c-120.667 -95.333 -265.334 -143 -434.001 -143c-159.333 0 -282.666 39.333 -369.999 118c-91.333 82 -137 202 -137 360c0 82.667 12.667 165 38 247l139 -29
c-18.667 -82.667 -28 -148 -28 -196c0 -102 28.667 -181.833 86 -239.5s137 -86.5 239 -86.5c123.333 0 231.666 23 324.999 69c119.333 58.667 179 143.334 179 254.001h-145c-182.667 0 -274 90.333 -274 271c0 62 20.333 117.333 61 166c42.667 52 94.334 78 155.001 78
c110 0 199.667 -52.333 269 -157c61.333 -92 92 -195.667 92 -311zM1137 326c-43.333 118.667 -105 177.999 -185 177.999c-28 0 -51 -9.66699 -69 -29s-27 -43 -27 -71c0 -53.333 40.333 -79.666 121 -78.999z" />
    <glyph glyph-name="u0643" unicode="&#x643;" horiz-adv-x="1883" arabic-form="isolated" 
d="M1899 1035l-540.999 -156.002c-43.333 -12.667 -65 -30 -65 -52c0 -16 9.33301 -42.333 28 -79l167 -329c36 -70.667 54 -127 54 -169c0 -166 -101.667 -249 -305 -249h-759c-94.667 0 -171.334 26.667 -230.001 80c-60.667 54.667 -91 129 -91 223v75h145v-40
c0 -107.333 55 -161 165 -161h780c92.667 0 139 26.667 139 80c0 29.333 -13 69 -39 119l-176 339c-20 38.667 -30 76.334 -30 113.001c0 88.667 52.333 148.334 157 179.001l544 161z" />
    <glyph glyph-name="u0644" unicode="&#x644;" horiz-adv-x="1140" arabic-form="isolated" 
d="M1136 163c4 -135.333 -35 -251 -117 -347c-95.333 -112 -231 -168 -407 -168c-143.333 0 -255 40.333 -335 121s-120 193 -120 337c0 90 19 184 57 282l129 -37c-31.333 -84 -47 -163.333 -47 -238c0 -96 31 -170 93 -222c58 -49.333 135.667 -74 233 -74
c94 0 175 23.333 243 70c84 58 124 140 120 246l-40 1025h164z" />
    <glyph glyph-name="u0645" unicode="&#x645;" horiz-adv-x="1041" arabic-form="isolated" 
d="M1039 355c0 -84 -29.334 -147.667 -88.001 -191c-52 -38.667 -121.667 -58 -209 -58c-32.667 0 -81.667 5 -147 15s-114.333 15 -147 15c-90.667 0 -136 -55 -136 -165v-740h-155v771c0 88 24 159.667 72 215c50.667 58.667 119.334 88 206.001 88
c27.333 220.667 128 331 302 331c81.333 0 151.333 -26.333 210 -79c61.333 -54 92 -121.333 92 -202zM904.999 365c0 38.667 -19.666 71 -58.999 97c-34.667 23.333 -72.334 35 -113.001 35c-94 0 -152 -64.333 -174 -193c76 -15.333 145 -23 207 -23
c92.667 0 139 28 139 84z" />
    <glyph glyph-name="u0646" unicode="&#x646;" horiz-adv-x="1275" arabic-form="isolated" 
d="M735 404h-159v158h159v-158zM1273 215c0 -134.667 -40.333 -254.332 -121 -358.999c-107.333 -140 -267 -210 -479 -210c-150 0 -273 46 -369 138c-98 94 -147 215.667 -147 365c0 74.667 16.667 163 50 265l138 -36c-24.667 -74.667 -37 -145.667 -37 -213
c0 -102.667 38 -186.334 114 -251.001c72.667 -62 161 -93 265 -93c129.333 0 234 34.333 314 103c84.667 73.333 127 173.666 127 300.999c0 82.667 -36.333 186.334 -109 311.001l131 90c82 -134 123 -271 123 -411z" />
    <glyph glyph-name="u0647" unicode="&#x647;" horiz-adv-x="871" arabic-form="isolated" 
d="M869 275c0 -94.667 -39 -166.333 -117 -215c-63.333 -39.333 -141 -59 -233 -59c-241.333 0 -362 120.333 -362 361c0 78.667 19 147.667 57 207c44 68 103.333 102 178 102c92 0 192.333 -40.333 301 -121c117.333 -87.333 176 -179 176 -275zM725 281.001
c0 47.333 -44.333 100.333 -133 159c-82 54.667 -144.667 82 -188 82c-34 0 -60.667 -20.333 -80 -61c-15.333 -32.667 -23 -68 -23 -106c0 -58.667 21 -103.667 63 -135c37.333 -28 86.333 -42 147 -42c142.667 0 214 34.333 214 103z" />
    <glyph glyph-name="u0648" unicode="&#x648;" horiz-adv-x="923" arabic-form="isolated" 
d="M919 240c0 -239.333 -246.999 -478 -740.999 -716l-78 134c113.333 52 223.666 113 330.999 183c162.667 106 270 207 322 303h-120c-88 0 -156 24.167 -204 72.5s-72 116.5 -72 204.5c0 64 23.667 118.667 71 164s103 68 167 68c74 0 142 -29.667 204 -89
c80 -76 120 -184 120 -324zM763.001 318c-2 50.667 -24 94.667 -66 132c-36 32 -69.667 48 -101 48c-25.333 0 -49 -8 -71 -24c-24 -17.333 -36 -38.333 -36 -63c0 -62 38.333 -93 115 -93h159z" />
    <glyph glyph-name="u0649" unicode="&#x649;" horiz-adv-x="1423" arabic-form="isolated" 
d="M1417 666l-65 -127.998c-54 28 -105.667 42 -155 42c-92.667 0 -184 -53 -274 -159c-15.333 -18 -23 -35.333 -23 -52c0 -29.333 18 -45.333 54 -48l275 -19c106.667 -8 160 -65 160 -171c0 -89.333 -66 -185.333 -198 -288c-150.667 -116.667 -322 -175 -514 -175
c-153.333 0 -276.333 37.333 -369 112c-100.667 81.333 -151 197 -151 347c0 101.333 16 192.666 48 273.999l123 -41c-22 -75.333 -33 -136.333 -33 -183c0 -226.667 131.333 -340 394 -340c92.667 0 185.667 16.667 279 50c118 42 204.333 103 259 183
c12 17.333 18 32.333 18 45c0 19.333 -15.667 29 -47 29c-147.333 1.33301 -241.333 6.33301 -282 15c-114 25.333 -171 84.666 -171 177.999c0 84.667 51.667 172.667 155 264c101.333 89.333 195 134 281 134s164.667 -23 236 -69z" />
    <glyph glyph-name="u064A" unicode="&#x64a;" horiz-adv-x="1423" arabic-form="isolated" 
d="M1417 666l-65 -127.998c-54 28 -105.667 42 -155 42c-92.667 0 -184 -53 -274 -159c-15.333 -18 -23 -35.333 -23 -52c0 -29.333 18 -45.333 54 -48l275 -19c106.667 -8 160 -65 160 -171c0 -89.333 -66 -185.333 -198 -288c-150.667 -116.667 -322 -175 -514 -175
c-153.333 0 -276.333 37.333 -369 112c-100.667 81.333 -151 197 -151 347c0 101.333 16 192.666 48 273.999l123 -41c-22 -75.333 -33 -136.333 -33 -183c0 -226.667 131.333 -340 394 -340c92.667 0 185.667 16.667 279 50c118 42 204.333 103 259 183
c12 17.333 18 32.333 18 45c0 19.333 -15.667 29 -47 29c-147.333 1.33301 -241.333 6.33301 -282 15c-114 25.333 -171 84.666 -171 177.999c0 84.667 51.667 172.667 155 264c101.333 89.333 195 134 281 134s164.667 -23 236 -69z" />
    <glyph glyph-name="u067E" unicode="&#x67e;" horiz-adv-x="1624" arabic-form="isolated" 
d="M1621 241c0 -72.667 -25.667 -131.333 -77 -176c-48.667 -42.667 -109.667 -64 -183 -64h-914c-87.333 0 -157.5 28.333 -210.5 85s-79.5 129 -79.5 217v71h149v-34c0 -108 52 -162 156 -162h883c81.333 0 122 23.333 122 70c0 23.333 -10.333 55.333 -31 96l-79 155
l130 85l91 -187c28.667 -58.667 43 -110.667 43 -156zM1063 -331.999h-159v158h159v-158zM846 -331.999h-157v158h157v-158zM954 -534.999h-159v158h159v-158z" />
    <glyph glyph-name="u0686" unicode="&#x686;" horiz-adv-x="1247" arabic-form="isolated" 
d="M968 -169h-159v158h159v-158zM1277 -614c-174.667 -81.333 -346.999 -121.999 -516.999 -121.999c-156 0 -285.333 32 -388 96c-143.333 89.333 -215 233 -215 431c0 162.667 91.667 316 275 460c96 75.333 236 157.333 420 246c-228.667 14.667 -362.667 22 -402 22
c-66.667 0 -128.334 -20.667 -185.001 -62l-55 122c78 60.667 165.333 88.667 262 84l760 -37v-152c-118.667 0 -281 -57 -487 -171c-297.333 -164.667 -446 -344.667 -446 -540c0 -110.667 52 -197.334 156 -260.001c87.333 -52.667 190.333 -79 309 -79
c152 0 301 31.333 447 94zM752.001 -168.999h-159v158h159v-158zM859.001 -371.999h-159v158h159v-158z" />
    <glyph glyph-name="u0698" unicode="&#x698;" horiz-adv-x="924" arabic-form="isolated" 
d="M741 1064h-158v158h158v-158zM848 861h-158v158h158v-158zM633 861h-159v158h159v-158zM885 546c26 -49.333 39 -101.001 39 -155.001c0 -75.333 -25.667 -151.333 -77 -228c-106 -158.667 -335.333 -329.334 -688 -512.001l-75 140c326 172.667 539 331.334 639 476.001
c29.333 42.667 44 82.334 44 119.001c0 36 -11.333 74.333 -34 115l-102 183l137 84z" />
    <glyph glyph-name="u06AF" unicode="&#x6af;" horiz-adv-x="1915" arabic-form="isolated" 
d="M1859 1184l-684 -163l-40 71l689 165zM1935 1027l-585.999 -138.001c-43.333 -10 -65 -27 -65 -51c0 -18 9.33301 -45 28 -81l176 -338c36 -69.333 54 -125.666 54 -168.999c0 -166 -101.667 -249 -305 -249h-759c-94.667 0 -171.334 26.667 -230.001 80
c-60.667 54.667 -91 129 -91 223v75h145v-40c0 -107.333 55 -161 165 -161h780c92.667 0 139 26.667 139 80c0 29.333 -13 69 -39 119l-176 339c-16.667 32 -25 65.667 -25 101c0 97.333 50.667 158.333 152 183l581 141z" />
    <glyph glyph-name="uFB57" unicode="&#x67e;" horiz-adv-x="1923" arabic-form="final" 
d="M1950 1h-89.999c-114 0 -202.333 43.667 -265 131c-45.333 -87.333 -123.333 -131 -234 -131h-914c-87.333 0 -157.5 28.333 -210.5 85s-79.5 129 -79.5 217v71h149v-34c0 -108 52 -162 156 -162h883c82.667 0 124 23.667 124 71c0 24 -11 55.667 -33 95l-83 149l130 86
l90 -169c40 -75.333 75.667 -128 107 -158c51.333 -49.333 112.666 -74 183.999 -74h86v-177zM1063 -332h-159v158h159v-158zM846.001 -332h-157v158h157v-158zM954.001 -535h-159v158h159v-158z" />
    <glyph glyph-name="uFB58" unicode="&#x67e;" horiz-adv-x="400" arabic-form="initial" 
d="M399 252c0 -63.333 -19.333 -118.334 -58 -165.001c-48 -57.333 -116.667 -86 -206 -86h-162v177h159c74.667 0 112 27.333 112 82c0 22.667 -8 48.334 -24 77.001l-92 163l129 91c52 -94 84 -154 96 -180c30.667 -66 46 -119 46 -159zM387 -332.001h-159v158h159v-158z
M171 -332.001h-158v158h158v-158zM278 -535.001h-159v158h159v-158z" />
    <glyph glyph-name="uFB59" unicode="&#x67e;" horiz-adv-x="538" arabic-form="medial" 
d="M566 1l-53 -0.000976562c-104 0 -178.333 38 -223 114c-46 -76 -115 -114 -207 -114h-110v177h70c62 0 101.333 13 118 39c11.333 18 17 58.667 17 122v212h154v-164c0 -85.333 15.667 -142.666 47 -171.999c26 -24 73.667 -36 143 -36h44v-178zM451 -332.001h-159v158
h159v-158zM235 -332.001h-159v158h159v-158zM342 -535.001h-159v158h159v-158z" />
    <glyph glyph-name="uFB7B" unicode="&#x686;" horiz-adv-x="1328" arabic-form="final" 
d="M1354 1h-169.998c-115.333 0 -203 25.333 -263 76c-44.667 38 -97.667 115.667 -159 233c-112 -52.667 -209.333 -119.667 -292 -201c-114 -112 -171 -227.333 -171 -346c0 -110.667 52 -197.334 156 -260.001c87.333 -52.667 190.333 -79 309 -79
c152 0 301 31.333 447 94l66 -132c-174.667 -81.333 -347 -122 -517 -122c-156 0 -285.333 32 -388 96c-143.333 89.333 -215 233 -215 431c0 162.667 91.667 316 275 460c96 75.333 236 157.333 420 246c-228.667 14.667 -362.667 22 -402 22
c-66.667 0 -128.334 -20.667 -185.001 -62l-55 122c78 60.667 165.333 88.667 262 84l760 -37v-152c-50 0 -114 -12 -192 -36s-136.333 -50.333 -175 -79c40 -61.333 77.333 -103.666 112 -126.999c53.333 -36 126.666 -54 219.999 -54h157v-177zM895.002 -205h-158v158h158
v-158zM679.002 -205h-159v158h159v-158zM786.002 -408h-158v158h158v-158z" />
    <glyph glyph-name="uFB7C" unicode="&#x686;" horiz-adv-x="907" arabic-form="initial" 
d="M907 117l-83 -116h-851v177h667l-289 255c-43.333 46.667 -93 70 -149 70h-114v152h148c64 0 123.667 -26 179 -78zM451 -332h-159v158h159v-158zM235 -332h-159v158h159v-158zM342 -535h-159v158h159v-158z" />
    <glyph glyph-name="uFB7D" unicode="&#x686;" horiz-adv-x="1229" arabic-form="medial" 
d="M1257 1h-140.999c-152 0 -279 99.333 -381 298c-144.667 -124 -256 -205.333 -334 -244c-72.667 -36 -156.334 -54 -251.001 -54h-177v177h88c103.333 0 190 12 260 36c59.333 20.667 132 61 218 121l206 149c-239.333 10.667 -389.666 16 -450.999 16
c-60.667 0 -116.334 -19.333 -167.001 -58l-58 117c78 64 161.333 94 250 90l790 -36v-145c-105.333 0 -201.333 -34.333 -288 -103c50 -61.333 91 -103.333 123 -126c57.333 -40.667 126.333 -61 207 -61h106v-177zM814.001 -332h-159v158h159v-158zM597.001 -332h-158v158
h158v-158zM705.001 -535h-159v158h159v-158z" />
    <glyph glyph-name="uFB8B" unicode="&#x698;" horiz-adv-x="1192" arabic-form="final" 
d="M741 874h-158v158h158v-158zM848 671h-158v158h158v-158zM633 671h-159v158h159v-158zM1218 1l-90.001 -0.000976562c-90 0 -163.667 34 -221 102c-6.66699 -40.667 -26.667 -85.667 -60 -135c-105.333 -156.667 -334.666 -327 -687.999 -511l-75 140
c328 174 541 332.333 639 475c29.333 42.667 44 82.334 44 119.001c0 36 -11.333 74.333 -34 115l-102 183l137 86l117 -224c60 -115.333 144 -173 252 -173h81v-177z" />
    <glyph glyph-name="uFEDA" unicode="&#x6a9;" horiz-adv-x="1842" arabic-form="final" 
d="M1899 1035l-540.999 -156c-44 -12.667 -66 -29.667 -66 -51c0 -16 9.66699 -42.667 29 -80l170 -327c54 -104 110.333 -173.333 169 -208c39.333 -23.333 93 -35 161 -35h48v-177h-73c-49.333 0 -100.833 13.5 -154.5 40.5s-94.167 60.5 -121.5 100.5
c-42 -94 -136.333 -141 -283 -141h-759c-94.667 0 -171.334 26.667 -230.001 80c-60.667 54.667 -91 129 -91 223v75h145v-40c0 -107.333 55 -161 165 -161h780c92.667 0 139 26.667 139 80c0 29.333 -13 69 -39 119l-176 339c-20.667 40 -31 78.333 -31 115
c0 86.667 52.667 145.667 158 177l544 161z" />
    <glyph glyph-name="uFEDB" unicode="&#x6a9;" horiz-adv-x="762" arabic-form="initial" 
d="M774 1035l-540 -156.001c-44 -12.667 -66 -30 -66 -52c0 -16 9.33301 -42.333 28 -79l168 -329c35.333 -69.333 53 -125.666 53 -168.999c0 -166 -101 -249 -303 -249h-141v177h149c93.333 0 140 26.667 140 80c0 29.333 -13 69 -39 119l-176 339
c-20.667 40 -31 77.667 -31 113c0 88 52.667 147.667 158 179l544 161z" />
    <glyph glyph-name="uFEDC" unicode="&#x6a9;" horiz-adv-x="718" arabic-form="medial" 
d="M774 1035l-540 -155.999c-44 -12.667 -66 -29.667 -66 -51c0 -17.333 9.33301 -44 28 -80l170 -327c54 -104 110.333 -173.333 169 -208c39.333 -23.333 93 -35 161 -35h48v-177h-72c-49.333 0 -100.833 13.5 -154.5 40.5s-94.167 60.5 -121.5 100.5
c-42.667 -94 -136.667 -141 -282 -141h-141v177h149c93.333 0 140 26.667 140 80c0 29.333 -13 69 -39 119l-176 339c-21.333 41.333 -32 79.666 -32 114.999c0 86.667 53 145.667 159 177l544 161z" />
    <glyph glyph-name="uFB93" unicode="&#x6af;" horiz-adv-x="1842" arabic-form="final" 
d="M1859 1184l-684 -163l-40 71l689 165zM1935 1027l-585.998 -137.999c-44 -10.667 -66 -27.334 -66 -50.001c0 -18.667 9.66699 -46 29 -82l179 -336c55.333 -103.333 111.666 -172.333 168.999 -207c40 -24 93.667 -36 161 -36h48v-177h-73
c-49.333 0 -100.833 13.5 -154.5 40.5s-94.167 60.5 -121.5 100.5c-42 -94 -136.333 -141 -283 -141h-759c-94.667 0 -171.334 26.667 -230.001 80c-60.667 54.667 -91 129 -91 223v75h145v-40c0 -107.333 55 -161 165 -161h780c92.667 0 139 26.667 139 80
c0 29.333 -13 69 -39 119l-176 339c-16.667 32 -25 65.667 -25 101c0 97.333 50.667 158.333 152 183l581 141z" />
    <glyph glyph-name="uFB94" unicode="&#x6af;" horiz-adv-x="805" arabic-form="initial" 
d="M735 1184l-684 -163l-40 71l689 165zM811 1027l-586 -138c-44 -10.667 -66 -27.667 -66 -51c0 -16.667 9.66699 -43.667 29 -81l176 -338c35.333 -68 53 -124.333 53 -169c0 -166 -101 -249 -303 -249h-141v177h149c93.333 0 140 26.667 140 80c0 29.333 -13 69 -39 119
l-176 339c-17.333 33.333 -26 67 -26 101c0 97.333 51 158.333 153 183l580 141z" />
    <glyph glyph-name="uFB95" unicode="&#x6af;" horiz-adv-x="716" arabic-form="medial" 
d="M735 1184l-684 -163l-40 71l689 165zM811 1027l-586.001 -138c-44.667 -10.667 -67 -27.667 -67 -51c0 -16 10 -43 30 -81l178 -336c54.667 -103.333 111.334 -172.333 170.001 -207c40.667 -24 94 -36 160 -36h48v-177h-72c-49.333 0 -100.833 13.5 -154.5 40.5
s-94.167 60.5 -121.5 100.5c-42.667 -94 -136.667 -141 -282 -141h-141v177h149c93.333 0 140 26.667 140 80c0 29.333 -13 69 -39 119l-176 339c-17.333 33.333 -26 67 -26 101c0 97.333 51 158.333 153 183l580 141z" />
    <glyph glyph-name="uFE94" unicode="&#x6c0;" horiz-adv-x="1082" arabic-form="final" 
d="M666 1046l-463.998 -154l-28 75l165 55c-32.667 30.667 -49 73 -49 127c0 44.667 22.333 80 67 106c37.333 21.333 80.333 32 129 32c19.333 0 39.666 -1.66699 60.999 -5v-68c-14.667 2 -29 3 -43 3c-30.667 0 -58.334 -5.66699 -83.001 -17
c-30.667 -14.667 -46 -35.667 -46 -63c0 -20 8.33301 -36.5 25 -49.5s35 -19.5 55 -19.5c24 0 86 17.667 186 53zM1107 1l-73.002 0.000976562c-140.667 0 -244 56.333 -310 169c-69.333 -20 -150.666 -30 -243.999 -30c-215.333 0 -323 87.667 -323 263
c0 64 48 130.667 144 200c16.667 12 82 51 196 117l-37 87l125 85l173 -469c31.333 -84.667 61.333 -142.334 90 -173.001c44.667 -48 109.334 -72 194.001 -72h65v-177zM656 310.001l-109.999 274.999c-85.333 -41.333 -144.333 -74.666 -177 -99.999
c-47.333 -36 -71 -73 -71 -111c0 -52 64 -78 192 -78c63.333 0 118.666 4.66699 165.999 14z" />
    <glyph glyph-name="uFEF2" unicode="&#x6cc;" horiz-adv-x="1447" arabic-form="final" 
d="M1475 1l-125.999 -0.000976562c36.667 -46.667 55 -93 55 -139c0 -86 -67.667 -171.333 -203 -256c-150 -94 -324 -141 -522 -141c-176.667 0 -311.334 52.333 -404.001 157c-78.667 88.667 -118 200.334 -118 335.001c0 111.333 11 198.333 33 261l131 -39
c-16 -70.667 -24 -128 -24 -172c0 -86.667 20.333 -160.667 61 -222c65.333 -98.667 175.333 -148 330 -148c94.667 0 189.334 14.333 284.001 43c109.333 33.333 192.666 79 249.999 137c15.333 15.333 23 30.333 23 45c0 24.667 -20.667 50 -62 76
c-64 40 -202 73.667 -414 101l41 139h665v-177z" />
    <glyph glyph-name="uFEF3" unicode="&#x6cc;" horiz-adv-x="400" arabic-form="initial" 
d="M399 252c0 -63.333 -19.333 -118.334 -58 -165.001c-48 -57.333 -116.667 -86 -206 -86h-162v177h159c74.667 0 112 27.333 112 82c0 22.667 -8 48.334 -24 77.001l-92 163l129 91c52 -94 84 -154 96 -180c30.667 -66 46 -119 46 -159zM397 -334.001h-158v158h158v-158z
M181 -334.001h-158v158h158v-158z" />
    <glyph glyph-name="uFEF4" unicode="&#x6cc;" horiz-adv-x="538" arabic-form="medial" 
d="M566 1l-53 -0.000976562c-104 0 -178.333 38 -223 114c-46 -76 -115 -114 -207 -114h-110v177h70c62 0 101.333 13 118 39c11.333 18 17 58.667 17 122v212h154v-164c0 -85.333 15.667 -142.666 47 -171.999c26 -24 73.667 -36 143 -36h44v-178zM460 -334.001h-158v158
h158v-158zM245 -334.001h-159v158h159v-158z" />
    <glyph glyph-name="Hcircumflex" unicode="&#x622;" horiz-adv-x="852" arabic-form="final" 
d="M897 1309c-132 -74.667 -271.334 -112 -418.001 -112c-33.333 0 -81.333 12.333 -144 37s-89 37 -79 37c-9.33301 0 -27.666 -22.667 -54.999 -68l-103 62c56.667 101.333 99 152 127 152c3.33301 0 38.833 -14.5 106.5 -43.5s121.834 -43.5 162.501 -43.5
c127.333 0 261.666 34.667 402.999 104v-125zM878.999 1h-139c-201.333 0 -302 120.667 -302 362v797h168v-783c0 -66.667 9.66699 -114.667 29 -144c24 -36.667 67.667 -55 131 -55h113v-177z" />
    <glyph glyph-name="uFE84" unicode="&#x623;" horiz-adv-x="716" arabic-form="final" 
d="M612 1331l-465 -153l-28 74l166 56c-32.667 30.667 -49 73 -49 127c0 44.667 22.333 80 67 106c37.333 21.333 80.333 32 129 32c19.333 0 39.333 -1.66699 60 -5v-69c-14 2.66699 -28 4 -42 4c-86.667 0 -130 -27 -130 -81c0 -19.333 8.5 -35.5 25.5 -48.5
s35.5 -19.5 55.5 -19.5c24 0 85.667 17.333 185 52zM743 1h-139c-201.333 0 -302 120.667 -302 362v797h168v-783c0 -66.667 9.66699 -114.667 29 -144c24 -36.667 67.333 -55 130 -55h114v-177z" />
    <glyph glyph-name="uFE86" unicode="&#x624;" horiz-adv-x="1115" arabic-form="final" 
d="M712 746l-465 -153l-27 74l164 55c-32.667 32.667 -49 75 -49 127c0 44.667 22.333 80 67 106c38 22 81 33 129 33c19.333 0 39.666 -1.66699 60.999 -5v-68c-14 2 -28 3 -42 3c-86.667 0 -130 -26.667 -130 -80c0 -20 8.33301 -36.667 25 -50s35.334 -20 56.001 -20
c21.333 0 83.333 17.667 186 53zM1142 1l-238.001 0.000976562c-56.667 -202.667 -298.667 -409 -726 -619l-78 134c350.667 166 568 328 652 486h-119c-88 0 -156 24 -204 72s-72 116 -72 204c0 64 23.5 118.667 70.5 164s102.833 68 167.5 68s126.334 -24 185.001 -72
c74 -60.667 118.333 -147.334 133 -260.001h229v-177zM762.999 175.001c-2 52 -24 96.334 -66 133.001c-35.333 31.333 -69 47 -101 47c-26 0 -49.667 -7.66699 -71 -23c-24 -16.667 -36 -37.334 -36 -62.001c0 -63.333 38.333 -95 115 -95h159z" />
    <glyph glyph-name="uFE88" unicode="&#x625;" horiz-adv-x="743" arabic-form="final" 
d="M770 1h-139c-201.333 0 -302 120.667 -302 362v797h168v-783c0 -66.667 9.66699 -114.667 29 -144c24 -36.667 67.667 -55 131 -55h113v-177zM675 -347l-464 -153.001l-28 74l166 56c-33.333 32 -50 74.333 -50 127c0 44.667 22.333 80 67 106
c37.333 21.333 80.333 32 129 32c20 0 40.333 -1.66699 61 -5v-68c-14 2.66699 -28 4 -42 4c-87.333 0 -131 -27 -131 -81c0 -19.333 8.5 -35.666 25.5 -48.999s35.5 -20 55.5 -20c22 0 84 17.333 186 52z" />
    <glyph glyph-name="uFE8A" unicode="&#x626;" horiz-adv-x="1447" arabic-form="final" 
d="M1475 1l-125.999 -0.000976562c36.667 -46.667 55 -93 55 -139c0 -86 -67.667 -171.333 -203 -256c-150 -94 -324 -141 -522 -141c-176.667 0 -311.334 52.333 -404.001 157c-78.667 88.667 -118 200.334 -118 335.001c0 111.333 11 198.333 33 261l131 -39
c-16 -70.667 -24 -128 -24 -172c0 -86.667 20.333 -160.667 61 -222c65.333 -98.667 175.333 -148 330 -148c94.667 0 189.334 14.333 284.001 43c109.333 33.333 192.666 79 249.999 137c15.333 15.333 23 30.333 23 45c0 24.667 -20.667 50 -62 76
c-64 40 -202 73.667 -414 101l41 139h665v-177zM566.001 519.999l-464.001 -154l-28 75l166 55c-32.667 32 -49 74.333 -49 127c0 45.333 22.333 80.666 67 105.999c36.667 21.333 79.334 32 128.001 32c20 0 40.333 -1.66699 61 -5v-67c-14 2 -27.667 3 -41 3
c-88 0 -132 -27 -132 -81c0 -19.333 8.5 -35.666 25.5 -48.999s35.5 -20 55.5 -20c24.667 0 86.667 17.667 186 53z" />
    <glyph glyph-name="uFE8B" unicode="&#x626;" horiz-adv-x="444" arabic-form="initial" 
d="M467 800l-464 -152.999l-28 74l165 56c-32.667 31.333 -49 73.666 -49 126.999c0 44.667 22.333 80 67 106c37.333 21.333 80.333 32 129 32c19.333 0 39.666 -1.66699 60.999 -5v-67c-14 2 -28 3 -42 3c-87.333 0 -131 -27 -131 -81c0 -20 8.33301 -36.5 25 -49.5
s35.334 -19.5 56.001 -19.5c21.333 0 83.333 17.667 186 53zM399 252.001c0 -63.333 -19.333 -118.334 -58 -165.001c-48 -57.333 -116.667 -86 -206 -86h-162v177h159c74.667 0 112 27.333 112 82c0 22.667 -8 48.334 -24 77.001l-92 163l129 91c52 -94 84 -154 96 -180
c30.667 -66 46 -119 46 -159z" />
    <glyph glyph-name="uFE8C" unicode="&#x626;" horiz-adv-x="538" arabic-form="medial" 
d="M485 783l-463.999 -154l-29 75l166 55c-32.667 32 -49 74.333 -49 127c0 44.667 22.333 80 67 106c37.333 21.333 80.333 32 129 32c19.333 0 39.333 -1.66699 60 -5v-68c-14 2 -28 3 -42 3c-30.667 0 -58.334 -5.66699 -83.001 -17c-30.667 -14.667 -46 -35.667 -46 -63
c0 -20 8 -36.5 24 -49.5s34.333 -19.5 55 -19.5c24.667 0 86.667 17.667 186 53zM566.001 1l-53 -0.000976562c-104 0 -178.333 38 -223 114c-46 -76 -115 -114 -207 -114h-110v177h70c62 0 101.333 13 118 39c11.333 18 17 58.667 17 122v212h154v-164
c0 -85.333 15.667 -142.666 47 -171.999c26 -24 73.667 -36 143 -36h44v-178z" />
    <glyph glyph-name="uFE8E" unicode="&#x627;" horiz-adv-x="571" arabic-form="final" 
d="M598 1h-140c-200.667 0 -301 120.667 -301 362v797h168v-783c0 -66.667 9.66699 -114.667 29 -144c24 -36.667 67.333 -55 130 -55h114v-177z" />
    <glyph glyph-name="uFE90" unicode="&#x628;" horiz-adv-x="1923" arabic-form="final" 
d="M1950 1h-89.999c-114 0 -202.333 43.667 -265 131c-45.333 -87.333 -123.333 -131 -234 -131h-914c-87.333 0 -157.5 28.333 -210.5 85s-79.5 129 -79.5 217v71h149v-34c0 -108 52 -162 156 -162h883c82.667 0 124 23.667 124 71c0 24 -11 55.667 -33 95l-83 149l130 86
l90 -169c40 -75.333 75.667 -128 107 -158c51.333 -49.333 112.666 -74 183.999 -74h86v-177zM952.001 -334h-159v157h159v-157z" />
    <glyph glyph-name="uFE91" unicode="&#x628;" horiz-adv-x="400" arabic-form="initial" 
d="M399 252c0 -63.333 -19.333 -118.334 -58 -165.001c-48 -57.333 -116.667 -86 -206 -86h-162v177h159c74.667 0 112 27.333 112 82c0 22.667 -8 48.334 -24 77.001l-92 163l129 91c52 -94 84 -154 96 -180c30.667 -66 46 -119 46 -159zM272 -334.001h-158v157h158v-157z
" />
    <glyph glyph-name="uFE92" unicode="&#x628;" horiz-adv-x="538" arabic-form="medial" 
d="M566 1l-53 -0.000976562c-104 0 -178.333 38 -223 114c-46 -76 -115 -114 -207 -114h-110v177h70c62 0 101.333 13 118 39c11.333 18 17 58.667 17 122v212h154v-164c0 -85.333 15.667 -142.666 47 -171.999c26 -24 73.667 -36 143 -36h44v-178zM335 -334.001h-158v157
h158v-157z" />
    <glyph glyph-name="uFE96" unicode="&#x62a;" horiz-adv-x="1923" arabic-form="final" 
d="M1018 487h-158v157h158v-157zM1950 1h-89.999c-114 0 -202.333 43.667 -265 131c-45.333 -87.333 -123.333 -131 -234 -131h-914c-87.333 0 -157.5 28.333 -210.5 85s-79.5 129 -79.5 217v71h149v-34c0 -108 52 -162 156 -162h883c82.667 0 124 23.667 124 71
c0 24 -11 55.667 -33 95l-83 149l130 86l90 -169c40 -75.333 75.667 -128 107 -158c51.333 -49.333 112.666 -74 183.999 -74h86v-177zM802.001 487h-158v157h158v-157z" />
    <glyph glyph-name="uFE97" unicode="&#x62a;" horiz-adv-x="400" arabic-form="initial" 
d="M401 720h-159v157h159v-157zM185 720h-159v157h159v-157zM399 252c0 -63.333 -19.333 -118.334 -58 -165.001c-48 -57.333 -116.667 -86 -206 -86h-162v177h159c74.667 0 112 27.333 112 82c0 22.667 -8 48.334 -24 77.001l-92 163l129 91c52 -94 84 -154 96 -180
c30.667 -66 46 -119 46 -159z" />
    <glyph glyph-name="uFE98" unicode="&#x62a;" horiz-adv-x="538" arabic-form="medial" 
d="M447 682h-159v158h159v-158zM231 682h-159v158h159v-158zM566 1l-53 -0.000976562c-104 0 -178.333 38 -223 114c-46 -76 -115 -114 -207 -114h-110v177h70c62 0 101.333 13 118 39c11.333 18 17 58.667 17 122v212h154v-164c0 -85.333 15.667 -142.666 47 -171.999
c26 -24 73.667 -36 143 -36h44v-178z" />
    <glyph glyph-name="uFE9A" unicode="&#x62b;" horiz-adv-x="1923" arabic-form="final" 
d="M911 692h-159v158h159v-158zM1018 489h-158v158h158v-158zM1950 1h-89.999c-114 0 -202.333 43.667 -265 131c-45.333 -87.333 -123.333 -131 -234 -131h-914c-87.333 0 -157.5 28.333 -210.5 85s-79.5 129 -79.5 217v71h149v-34c0 -108 52 -162 156 -162h883
c82.667 0 124 23.667 124 71c0 24 -11 55.667 -33 95l-83 149l130 86l90 -169c40 -75.333 75.667 -128 107 -158c51.333 -49.333 112.666 -74 183.999 -74h86v-177zM802.001 489h-158v158h158v-158z" />
    <glyph glyph-name="uFE9B" unicode="&#x62b;" horiz-adv-x="403" arabic-form="initial" 
d="M294 920h-159v158h159v-158zM401 716h-159v158h159v-158zM185 716h-159v158h159v-158zM399 252c0 -63.333 -19.333 -118.334 -58 -165.001c-48 -57.333 -116.667 -86 -206 -86h-162v177h159c74.667 0 112 27.333 112 82c0 22.667 -8 48.334 -24 77.001l-92 163l129 91
c52 -94 84 -154 96 -180c30.667 -66 46 -119 46 -159z" />
    <glyph glyph-name="uFE9C" unicode="&#x62b;" horiz-adv-x="538" arabic-form="medial" 
d="M340 883h-159v158h159v-158zM447 680h-159v158h159v-158zM231 680h-159v158h159v-158zM566 1l-53 -0.000976562c-104 0 -178.333 38 -223 114c-46 -76 -115 -114 -207 -114h-110v177h70c62 0 101.333 13 118 39c11.333 18 17 58.667 17 122v212h154v-164
c0 -85.333 15.667 -142.666 47 -171.999c26 -24 73.667 -36 143 -36h44v-178z" />
    <glyph glyph-name="uFE9E" unicode="&#x62c;" horiz-adv-x="1328" arabic-form="final" 
d="M1354 1h-169.998c-115.333 0 -203 25.333 -263 76c-44.667 38 -97.667 115.667 -159 233c-112 -52.667 -209.333 -119.667 -292 -201c-114 -112 -171 -227.333 -171 -346c0 -110.667 52 -197.334 156 -260.001c87.333 -52.667 190.333 -79 309 -79
c152 0 301 31.333 447 94l66 -132c-174.667 -81.333 -347 -122 -517 -122c-156 0 -285.333 32 -388 96c-143.333 89.333 -215 233 -215 431c0 162.667 91.667 316 275 460c96 75.333 236 157.333 420 246c-228.667 14.667 -362.667 22 -402 22
c-66.667 0 -128.334 -20.667 -185.001 -62l-55 122c78 60.667 165.333 88.667 262 84l760 -37v-152c-50 0 -114 -12 -192 -36s-136.333 -50.333 -175 -79c40 -61.333 77.333 -103.666 112 -126.999c53.333 -36 126.666 -54 219.999 -54h157v-177zM793.002 -262h-158v158h158
v-158z" />
    <glyph glyph-name="uFE9F" unicode="&#x62c;" horiz-adv-x="907" arabic-form="initial" 
d="M907 117l-83 -116h-851v177h667l-289 255c-43.333 46.667 -93 70 -149 70h-114v152h148c64 0 123.667 -26 179 -78zM240 -325h-158v157h158v-157z" />
    <glyph glyph-name="uFEA0" unicode="&#x62c;" horiz-adv-x="1229" arabic-form="medial" 
d="M1257 1h-140.999c-152 0 -279 99.333 -381 298c-144.667 -124 -256 -205.333 -334 -244c-72.667 -36 -156.334 -54 -251.001 -54h-177v177h88c103.333 0 190 12 260 36c59.333 20.667 132 61 218 121l206 149c-239.333 10.667 -389.666 16 -450.999 16
c-60.667 0 -116.334 -19.333 -167.001 -58l-58 117c78 64 161.333 94 250 90l790 -36v-145c-105.333 0 -201.333 -34.333 -288 -103c50 -61.333 91 -103.333 123 -126c57.333 -40.667 126.333 -61 207 -61h106v-177zM639.001 -325h-158v157h158v-157z" />
    <glyph glyph-name="uFEA2" unicode="&#x62d;" horiz-adv-x="1327" arabic-form="final" 
d="M1354 1h-169.998c-115.333 0 -203 25.333 -263 76c-44.667 38 -97.667 115.667 -159 233c-112 -52.667 -209.333 -119.667 -292 -201c-114 -112 -171 -227.333 -171 -346c0 -110.667 52 -197.334 156 -260.001c87.333 -52.667 190.333 -79 309 -79
c152 0 301 31.333 447 94l66 -132c-174.667 -81.333 -347 -122 -517 -122c-156 0 -285.333 32 -388 96c-143.333 89.333 -215 233 -215 431c0 162.667 91.667 316 275 460c96 75.333 236 157.333 420 246c-228.667 14.667 -362.667 22 -402 22
c-66.667 0 -128.334 -20.667 -185.001 -62l-55 122c78 60.667 165.333 88.667 262 84l760 -37v-152c-50 0 -114 -12 -192 -36s-136.333 -50.333 -175 -79c40 -61.333 77.333 -103.666 112 -126.999c53.333 -36 126.666 -54 219.999 -54h157v-177z" />
    <glyph glyph-name="uFEA3" unicode="&#x62d;" horiz-adv-x="907" arabic-form="initial" 
d="M907 117l-83 -116h-851v177h667l-289 255c-43.333 46.667 -93 70 -149 70h-114v152h148c64 0 123.667 -26 179 -78z" />
    <glyph glyph-name="uFEA4" unicode="&#x62d;" horiz-adv-x="1230" arabic-form="medial" 
d="M1257 1h-140.999c-152 0 -279 99.333 -381 298c-144.667 -124 -256 -205.333 -334 -244c-72.667 -36 -156.334 -54 -251.001 -54h-177v177h88c103.333 0 190 12 260 36c59.333 20.667 132 61 218 121l206 149c-239.333 10.667 -389.666 16 -450.999 16
c-60.667 0 -116.334 -19.333 -167.001 -58l-58 117c78 64 161.333 94 250 90l790 -36v-145c-105.333 0 -201.333 -34.333 -288 -103c50 -61.333 91 -103.333 123 -126c57.333 -40.667 126.333 -61 207 -61h106v-177z" />
    <glyph glyph-name="uFEA6" unicode="&#x62e;" horiz-adv-x="1328" arabic-form="final" 
d="M798 858h-159v158h159v-158zM1354 1h-169.998c-115.333 0 -203 25.333 -263 76c-44.667 38 -97.667 115.667 -159 233c-112 -52.667 -209.333 -119.667 -292 -201c-114 -112 -171 -227.333 -171 -346c0 -110.667 52 -197.334 156 -260.001
c87.333 -52.667 190.333 -79 309 -79c152 0 301 31.333 447 94l66 -132c-174.667 -81.333 -347 -122 -517 -122c-156 0 -285.333 32 -388 96c-143.333 89.333 -215 233 -215 431c0 162.667 91.667 316 275 460c96 75.333 236 157.333 420 246
c-228.667 14.667 -362.667 22 -402 22c-66.667 0 -128.334 -20.667 -185.001 -62l-55 122c78 60.667 165.333 88.667 262 84l760 -37v-152c-50 0 -114 -12 -192 -36s-136.333 -50.333 -175 -79c40 -61.333 77.333 -103.666 112 -126.999c53.333 -36 126.666 -54 219.999 -54
h157v-177z" />
    <glyph glyph-name="uFEA7" unicode="&#x62e;" horiz-adv-x="907" arabic-form="initial" 
d="M254 858h-159v158h159v-158zM907 117l-83 -116h-851v177h667l-289 255c-43.333 46.667 -93 70 -149 70h-114v152h148c64 0 123.667 -26 179 -78z" />
    <glyph glyph-name="uFEA8" unicode="&#x62e;" horiz-adv-x="1229" arabic-form="medial" 
d="M707 858h-158v158h158v-158zM1257 1h-140.999c-152 0 -279 99.333 -381 298c-144.667 -124 -256 -205.333 -334 -244c-72.667 -36 -156.334 -54 -251.001 -54h-177v177h88c103.333 0 190 12 260 36c59.333 20.667 132 61 218 121l206 149
c-239.333 10.667 -389.666 16 -450.999 16c-60.667 0 -116.334 -19.333 -167.001 -58l-58 117c78 64 161.333 94 250 90l790 -36v-145c-105.333 0 -201.333 -34.333 -288 -103c50 -61.333 91 -103.333 123 -126c57.333 -40.667 126.333 -61 207 -61h106v-177z" />
    <glyph glyph-name="uFEAA" unicode="&#x62f;" horiz-adv-x="1339" arabic-form="final" 
d="M1365 1h-54.001c-123.333 0 -220.666 45.667 -291.999 137c-32.667 -91.333 -120.334 -137 -263.001 -137h-298c-62 0 -120 13.333 -174 40c-60 29.333 -102.667 70 -128 122l98 104c52 -59.333 105.333 -89 160 -89h346c83.333 0 125 24 125 72
c0 18.667 -8 43.667 -24 75l-228 443l134 86l229 -450c40 -78.667 82.333 -134.667 127 -168c50.667 -38.667 117.334 -58 200.001 -58h42v-177z" />
    <glyph glyph-name="uFEAC" unicode="&#x630;" horiz-adv-x="1338" arabic-form="final" 
d="M775 980h-159v158h159v-158zM1365 1h-54.001c-123.333 0 -220.666 45.667 -291.999 137c-32.667 -91.333 -120.334 -137 -263.001 -137h-298c-62 0 -120 13.333 -174 40c-60 29.333 -102.667 70 -128 122l98 104c52 -59.333 105.333 -89 160 -89h346
c83.333 0 125 24 125 72c0 18.667 -8 43.667 -24 75l-228 443l134 86l229 -450c40 -78.667 82.333 -134.667 127 -168c50.667 -38.667 117.334 -58 200.001 -58h42v-177z" />
    <glyph glyph-name="uFEAE" unicode="&#x631;" horiz-adv-x="1191" arabic-form="final" 
d="M1218 1l-90.001 -0.000976562c-90 0 -163.667 34 -221 102c-6.66699 -40.667 -26.667 -85.667 -60 -135c-105.333 -156.667 -334.666 -327 -687.999 -511l-75 140c328 174 541 332.333 639 475c29.333 42.667 44 82.334 44 119.001c0 36 -11.333 74.333 -34 115l-102 183
l137 86l117 -224c60 -115.333 144 -173 252 -173h81v-177z" />
    <glyph glyph-name="uFEB0" unicode="&#x632;" horiz-adv-x="1192" arabic-form="final" 
d="M780 721h-159v158h159v-158zM1218 1l-90.001 -0.000976562c-90 0 -163.667 34 -221 102c-6.66699 -40.667 -26.667 -85.667 -60 -135c-105.333 -156.667 -334.666 -327 -687.999 -511l-75 140c328 174 541 332.333 639 475c29.333 42.667 44 82.334 44 119.001
c0 36 -11.333 74.333 -34 115l-102 183l137 86l117 -224c60 -115.333 144 -173 252 -173h81v-177z" />
    <glyph glyph-name="uFEB2" unicode="&#x633;" horiz-adv-x="2275" arabic-form="final" 
d="M2302 1l-55.002 -0.00292969c-42.667 0 -84.667 10.333 -126 31c-44 22 -75.667 50.667 -95 86c-47.333 -83.333 -111 -125 -191 -125c-92.667 0 -160 41.333 -202 124c-43.333 -77.333 -100.666 -116 -171.999 -116c-52.667 0 -101 14 -145 42
c0 -135.333 -19.333 -238.333 -58 -309c-50.667 -93.333 -129.334 -166.333 -236.001 -219c-98 -49.333 -203.333 -74 -316 -74c-180 0 -319.333 49 -418 147c-86.667 86 -130 195 -130 327c0 119.333 26 234 78 344l129 -39c-38 -112 -57 -204.667 -57 -278
c0 -121.333 47.333 -210.666 142 -267.999c68.667 -41.333 150.334 -62 245.001 -62c118.667 0 222.334 27 311.001 81c104 63.333 156 151 156 263c0 16.667 -2 36.334 -6 59.001c-22 124 -74.333 256.667 -157 398l133 84c60.667 -108.667 100.334 -175.667 119.001 -201
c60 -81.333 119 -122 177 -122c39.333 0 66.666 6.83301 81.999 20.5s23 39.834 23 78.501v270h144v-77c0 -198 54.667 -297 164 -297c54 0 81 34.667 81 104v271h145v-167c0 -132.667 51.667 -199 155 -199h80v-177z" />
    <glyph glyph-name="uFEB3" unicode="&#x633;" horiz-adv-x="1160" arabic-form="initial" 
d="M1158 240c0 -76.667 -25.165 -139.165 -75.498 -187.498s-113.833 -72.5 -190.5 -72.5c-110.667 0 -189 41.667 -235 125c-54.667 -76 -113.334 -114 -176.001 -114c-97.333 0 -167 41.333 -209 124c-26.667 -46.667 -61.667 -78.334 -105 -95.001
c-32.667 -12.667 -79.334 -19 -140.001 -19h-53v177h72c50.667 0 86 11.667 106 35c18 21.333 27 58 27 110v213h139l1 -86c2 -190 57.333 -285 166 -285c33.333 0 55.333 18.333 66 55c6.66699 23.333 10 72 10 146v170h141v-130c0 -66.667 14.667 -123.334 44 -170.001
c35.333 -54.667 84.333 -82 147 -82c71.333 0 107 29.667 107 89c0 38 -35.333 116.667 -106 236l125 87c92.667 -163.333 139 -272 139 -326z" />
    <glyph glyph-name="uFEB4" unicode="&#x633;" horiz-adv-x="1296" arabic-form="medial" 
d="M1323 1h-56.001c-42.667 0 -84.334 10.333 -125.001 31c-44 22 -75 50.667 -93 86c-47.333 -83.333 -111.666 -125 -192.999 -125c-87.333 0 -151.666 41.333 -192.999 124c-48 -83.333 -108.667 -125 -182 -125c-94.667 0 -163.667 41.667 -207 125
c-38.667 -77.333 -102 -116 -190 -116h-111v177h101c70 0 105 31.667 105 95v270h145v-77c0 -198 51.667 -297 155 -297c50 0 75 34.667 75 104v270h144v-77c0 -198 54.667 -297 164 -297c54 0 81 34.667 81 104v271h144v-167c0 -132.667 51.667 -199 155 -199h81v-177z" />
    <glyph glyph-name="uFEB6" unicode="&#x634;" horiz-adv-x="2274" arabic-form="final" 
d="M1680 928h-159v158h159v-158zM1787 725h-159v158h159v-158zM1572 725h-159v158h159v-158zM2302 1l-55.002 -0.00292969c-42.667 0 -84.667 10.333 -126 31c-44 22 -75.667 50.667 -95 86c-47.333 -83.333 -111 -125 -191 -125c-92.667 0 -160 41.333 -202 124
c-43.333 -77.333 -100.666 -116 -171.999 -116c-52.667 0 -101 14 -145 42c0 -135.333 -19.333 -238.333 -58 -309c-50.667 -93.333 -129.334 -166.333 -236.001 -219c-98 -49.333 -203.333 -74 -316 -74c-180 0 -319.333 49 -418 147c-86.667 86 -130 195 -130 327
c0 119.333 26 234 78 344l129 -39c-38 -112 -57 -204.667 -57 -278c0 -121.333 47.333 -210.666 142 -267.999c68.667 -41.333 150.334 -62 245.001 -62c118.667 0 222.334 27 311.001 81c104 63.333 156 151 156 263c0 16.667 -2 36.334 -6 59.001
c-22 124 -74.333 256.667 -157 398l133 84c60.667 -108.667 100.334 -175.667 119.001 -201c60 -81.333 119 -122 177 -122c39.333 0 66.666 6.83301 81.999 20.5s23 39.834 23 78.501v270h144v-77c0 -198 54.667 -297 164 -297c54 0 81 34.667 81 104v271h145v-167
c0 -132.667 51.667 -199 155 -199h80v-177z" />
    <glyph glyph-name="uFEB7" unicode="&#x634;" horiz-adv-x="1160" arabic-form="initial" 
d="M707 928h-158v158h158v-158zM815 725h-159v158h159v-158zM598 725h-158v158h158v-158zM1158 240c0 -76.667 -25.165 -139.165 -75.498 -187.498s-113.833 -72.5 -190.5 -72.5c-110.667 0 -189 41.667 -235 125c-54.667 -76 -113.334 -114 -176.001 -114
c-97.333 0 -167 41.333 -209 124c-26.667 -46.667 -61.667 -78.334 -105 -95.001c-32.667 -12.667 -79.334 -19 -140.001 -19h-53v177h72c50.667 0 86 11.667 106 35c18 21.333 27 58 27 110v213h139l1 -86c2 -190 57.333 -285 166 -285c33.333 0 55.333 18.333 66 55
c6.66699 23.333 10 72 10 146v170h141v-130c0 -66.667 14.667 -123.334 44 -170.001c35.333 -54.667 84.333 -82 147 -82c71.333 0 107 29.667 107 89c0 38 -35.333 116.667 -106 236l125 87c92.667 -163.333 139 -272 139 -326z" />
    <glyph glyph-name="uFEB8" unicode="&#x634;" horiz-adv-x="1296" arabic-form="medial" 
d="M719 928h-159v158h159v-158zM826 725h-159v158h159v-158zM611 725h-159v158h159v-158zM1323 1h-56.001c-42.667 0 -84.334 10.333 -125.001 31c-44 22 -75 50.667 -93 86c-47.333 -83.333 -111.666 -125 -192.999 -125c-87.333 0 -151.666 41.333 -192.999 124
c-48 -83.333 -108.667 -125 -182 -125c-94.667 0 -163.667 41.667 -207 125c-38.667 -77.333 -102 -116 -190 -116h-111v177h101c70 0 105 31.667 105 95v270h145v-77c0 -198 51.667 -297 155 -297c50 0 75 34.667 75 104v270h144v-77c0 -198 54.667 -297 164 -297
c54 0 81 34.667 81 104v271h144v-167c0 -132.667 51.667 -199 155 -199h81v-177z" />
    <glyph glyph-name="uFEBA" unicode="&#x635;" horiz-adv-x="2380" arabic-form="final" 
d="M2406 1l-48.002 -0.00195312c-107.333 0 -195.666 32.667 -264.999 98c-70.667 -65.333 -163 -98 -277 -98h-335c-71.333 0 -126.333 14 -165 42c0 -135.333 -19.333 -238.333 -58 -309c-50.667 -93.333 -129.334 -166.333 -236.001 -219
c-98 -49.333 -203.333 -74 -316 -74c-180 0 -319.333 49 -418 147c-86.667 86 -130 195 -130 327c0 119.333 26 234 78 344l129 -39c-38 -112 -57 -204.667 -57 -278c0 -121.333 47.333 -210.666 142 -267.999c68.667 -41.333 150.334 -62 245.001 -62
c118.667 0 222.334 27 311.001 81c104 63.333 156 151 156 263c0 16.667 -2 36.334 -6 59.001c-22 124 -74.333 256.667 -157 398l133 84l78 -156c21.333 -42.667 51 -80.667 89 -114c202.667 286.667 401.667 430 597 430c82 0 152.667 -27 212 -81
c61.333 -56 92 -124.667 92 -206c0 -55.333 -7 -103 -21 -143c37.333 -32.667 91.333 -49 162 -49h65v-177zM2048 358.998c0 42.667 -15.5 76.667 -46.5 102s-68.167 38 -111.5 38c-146 0 -307 -95.667 -483 -287c-8 -8.66699 -12 -15.667 -12 -21
c0 -8.66699 12.667 -13 38 -13h397c73.333 0 130 21 170 63c32 34 48 73.333 48 118z" />
    <glyph glyph-name="uFEBB" unicode="&#x635;" horiz-adv-x="1261" arabic-form="initial" 
d="M1258 370c0 -115.333 -35.1689 -205.667 -105.502 -271s-163.5 -98 -279.5 -98h-336c-106.667 0 -187 36 -241 108c-53.333 -72 -128 -108 -224 -108h-98v177h44c64.667 0 107 8 127 24c24 18.667 36 59 36 121v214h157v-142c0 -86 8.33301 -138.667 25 -158
c198.667 280 395.334 420 590.001 420c80.667 0 151.334 -27.333 212.001 -82c62 -56.667 93 -125 93 -205zM1105 358.999c0 42.667 -15.167 76.667 -45.5 102s-67.5 38 -111.5 38c-152.667 0 -323 -107 -511 -321h450c73.333 0 130 21 170 63c32 34 48 73.333 48 118z" />
    <glyph glyph-name="uFEBC" unicode="&#x635;" horiz-adv-x="1445" arabic-form="medial" 
d="M1472 1h-56.002c-107.333 0 -196 32.667 -266 98c-71.333 -65.333 -163.666 -98 -276.999 -98h-336c-106.667 0 -187 36 -241 108c-53.333 -72 -128 -108 -224 -108h-98v177h44c64.667 0 107 8 127 24c24 18.667 36 59 36 121v214h157v-142
c0 -86 8.33301 -138.667 25 -158c198.667 280 395.334 420 590.001 420c80.667 0 151.334 -27.333 212.001 -82c62 -56.667 93 -125 93 -205c0 -54 -7.66699 -101.667 -23 -143c39.333 -32.667 93.666 -49 162.999 -49h74v-177zM1105 359c0 42.667 -15.167 76.667 -45.5 102
s-67.5 38 -111.5 38c-152.667 0 -323 -107 -511 -321h450c73.333 0 130 21 170 63c32 34 48 73.333 48 118z" />
    <glyph glyph-name="uFEBE" unicode="&#x636;" horiz-adv-x="2381" arabic-form="final" 
d="M1918 867h-158v158h158v-158zM2406 1l-48.002 -0.00195312c-107.333 0 -195.666 32.667 -264.999 98c-70.667 -65.333 -163 -98 -277 -98h-335c-71.333 0 -126.333 14 -165 42c0 -135.333 -19.333 -238.333 -58 -309c-50.667 -93.333 -129.334 -166.333 -236.001 -219
c-98 -49.333 -203.333 -74 -316 -74c-180 0 -319.333 49 -418 147c-86.667 86 -130 195 -130 327c0 119.333 26 234 78 344l129 -39c-38 -112 -57 -204.667 -57 -278c0 -121.333 47.333 -210.666 142 -267.999c68.667 -41.333 150.334 -62 245.001 -62
c118.667 0 222.334 27 311.001 81c104 63.333 156 151 156 263c0 16.667 -2 36.334 -6 59.001c-22 124 -74.333 256.667 -157 398l133 84l78 -156c21.333 -42.667 51 -80.667 89 -114c202.667 286.667 401.667 430 597 430c82 0 152.667 -27 212 -81
c61.333 -56 92 -124.667 92 -206c0 -55.333 -7 -103 -21 -143c37.333 -32.667 91.333 -49 162 -49h65v-177zM2048 358.998c0 42.667 -15.5 76.667 -46.5 102s-68.167 38 -111.5 38c-146 0 -307 -95.667 -483 -287c-8 -8.66699 -12 -15.667 -12 -21
c0 -8.66699 12.667 -13 38 -13h397c73.333 0 130 21 170 63c32 34 48 73.333 48 118z" />
    <glyph glyph-name="uFEBF" unicode="&#x636;" horiz-adv-x="1262" arabic-form="initial" 
d="M975 867h-158v158h158v-158zM1258 370c0 -115.333 -35.1689 -205.667 -105.502 -271s-163.5 -98 -279.5 -98h-336c-106.667 0 -187 36 -241 108c-53.333 -72 -128 -108 -224 -108h-98v177h44c64.667 0 107 8 127 24c24 18.667 36 59 36 121v214h157v-142
c0 -86 8.33301 -138.667 25 -158c198.667 280 395.334 420 590.001 420c80.667 0 151.334 -27.333 212.001 -82c62 -56.667 93 -125 93 -205zM1105 358.999c0 42.667 -15.167 76.667 -45.5 102s-67.5 38 -111.5 38c-152.667 0 -323 -107 -511 -321h450
c73.333 0 130 21 170 63c32 34 48 73.333 48 118z" />
    <glyph glyph-name="uFEC0" unicode="&#x636;" horiz-adv-x="1447" arabic-form="medial" 
d="M975 867h-158v158h158v-158zM1472 1h-56.002c-107.333 0 -196 32.667 -266 98c-71.333 -65.333 -163.666 -98 -276.999 -98h-336c-106.667 0 -187 36 -241 108c-53.333 -72 -128 -108 -224 -108h-98v177h44c64.667 0 107 8 127 24c24 18.667 36 59 36 121v214h157v-142
c0 -86 8.33301 -138.667 25 -158c198.667 280 395.334 420 590.001 420c80.667 0 151.334 -27.333 212.001 -82c62 -56.667 93 -125 93 -205c0 -54 -7.66699 -101.667 -23 -143c39.333 -32.667 93.666 -49 162.999 -49h74v-177zM1105 359c0 42.667 -15.167 76.667 -45.5 102
s-67.5 38 -111.5 38c-152.667 0 -323 -107 -511 -321h450c73.333 0 130 21 170 63c32 34 48 73.333 48 118z" />
    <glyph glyph-name="uFEC2" unicode="&#x637;" horiz-adv-x="1634" arabic-form="final" 
d="M1660 1l-79.001 0.000976562c-97.333 0 -178 33.333 -242 100c-72.667 -66.667 -164.667 -100 -276 -100h-698c-83.333 0 -152.666 19.333 -207.999 58v119h233c72.667 0 109 51.667 109 155v824h138v-801c59.333 73.333 128 137 206 191c106 73.333 206 110 300 110
c83.333 0 154.333 -27 213 -81c61.333 -55.333 92 -124 92 -206c0 -50.667 -8.33301 -99.334 -25 -146.001c40 -30.667 93.333 -46 160 -46h77v-177zM1296 359.001c0 42.667 -15.5 76.667 -46.5 102s-68.167 38 -111.5 38c-158.667 0 -332 -107 -520 -321h460
c58.667 0 108.667 15 150 45c45.333 34 68 79.333 68 136z" />
    <glyph glyph-name="uFEC3" unicode="&#x637;" horiz-adv-x="1134" arabic-form="initial" 
d="M1131 370c0 -123.333 -42.333 -218.333 -127 -285c-71.333 -56 -157.333 -84 -258 -84l-772 1v176h98c45.333 0 76 15.333 92 46c11.333 22 17 58.333 17 109v824h138v-801c60.667 74 129.334 137.667 206.001 191c105.333 73.333 205.666 110 300.999 110
c83.333 0 154.333 -27 213 -81c61.333 -55.333 92 -124 92 -206zM978 359c0 42.667 -15.5 76.667 -46.5 102s-68.167 38 -111.5 38c-158 0 -331 -107 -519 -321h459c73.333 0 130 21 170 63c32 34 48 73.333 48 118z" />
    <glyph glyph-name="uFEC4" unicode="&#x637;" horiz-adv-x="1316" arabic-form="medial" 
d="M1342 1h-78c-97.333 0 -178.333 33.333 -243 100c-72 -66.667 -163.667 -100 -275 -100h-773v177h99c45.333 0 76 15.333 92 46c11.333 22 17 58.333 17 109v824h138v-801c60.667 74 129.334 137.667 206.001 191c105.333 73.333 205.666 110 300.999 110
c83.333 0 154.333 -27 213 -81c61.333 -55.333 92 -124 92 -206c0 -49.333 -8.33301 -98 -25 -146c39.333 -30.667 92.333 -46 159 -46h77v-177zM978 359c0 42.667 -15.5 76.667 -46.5 102s-68.167 38 -111.5 38c-158 0 -331 -107 -519 -321h459c73.333 0 130 21 170 63
c32 34 48 73.333 48 118z" />
    <glyph glyph-name="uFEC6" unicode="&#x638;" horiz-adv-x="1634" arabic-form="final" 
d="M1166 867h-159v158h159v-158zM1660 1l-79.001 0.000976562c-97.333 0 -178 33.333 -242 100c-72.667 -66.667 -164.667 -100 -276 -100h-698c-83.333 0 -152.666 19.333 -207.999 58v119h233c72.667 0 109 51.667 109 155v824h138v-801c59.333 73.333 128 137 206 191
c106 73.333 206 110 300 110c83.333 0 154.333 -27 213 -81c61.333 -55.333 92 -124 92 -206c0 -50.667 -8.33301 -99.334 -25 -146.001c40 -30.667 93.333 -46 160 -46h77v-177zM1296 359.001c0 42.667 -15.5 76.667 -46.5 102s-68.167 38 -111.5 38
c-158.667 0 -332 -107 -520 -321h460c58.667 0 108.667 15 150 45c45.333 34 68 79.333 68 136z" />
    <glyph glyph-name="uFEC7" unicode="&#x638;" horiz-adv-x="1135" arabic-form="initial" 
d="M867 867h-159v158h159v-158zM1131 370c0 -123.333 -42.333 -218.333 -127 -285c-71.333 -56 -157.333 -84 -258 -84l-772 1v176h98c45.333 0 76 15.333 92 46c11.333 22 17 58.333 17 109v824h138v-801c60.667 74 129.334 137.667 206.001 191
c105.333 73.333 205.666 110 300.999 110c83.333 0 154.333 -27 213 -81c61.333 -55.333 92 -124 92 -206zM978 359c0 42.667 -15.5 76.667 -46.5 102s-68.167 38 -111.5 38c-158 0 -331 -107 -519 -321h459c73.333 0 130 21 170 63c32 34 48 73.333 48 118z" />
    <glyph glyph-name="uFEC8" unicode="&#x638;" horiz-adv-x="1314" arabic-form="medial" 
d="M867 867h-159v158h159v-158zM1342 1h-78c-97.333 0 -178.333 33.333 -243 100c-72 -66.667 -163.667 -100 -275 -100h-773v177h99c45.333 0 76 15.333 92 46c11.333 22 17 58.333 17 109v824h138v-801c60.667 74 129.334 137.667 206.001 191
c105.333 73.333 205.666 110 300.999 110c83.333 0 154.333 -27 213 -81c61.333 -55.333 92 -124 92 -206c0 -49.333 -8.33301 -98 -25 -146c39.333 -30.667 92.333 -46 159 -46h77v-177zM978 359c0 42.667 -15.5 76.667 -46.5 102s-68.167 38 -111.5 38
c-158 0 -331 -107 -519 -321h459c73.333 0 130 21 170 63c32 34 48 73.333 48 118z" />
    <glyph glyph-name="uFECA" unicode="&#x639;" horiz-adv-x="1077" arabic-form="final" 
d="M1104 1h-88.002c-114.667 0 -222 47.333 -322 142c-110.667 -57.333 -187.667 -103 -231 -137c-106 -82 -159 -169.333 -159 -262c0 -102 45 -179.667 135 -233c74.667 -44 166.667 -66 276 -66c118.667 0 225.334 17 320.001 51l44 -136c-134 -52 -271 -78 -411 -78
c-142 0 -261 38.667 -357 116c-102.667 82.667 -154 193.667 -154 333c0 170 88.667 309.667 266 419l147 88l-131 125c-58.667 61.333 -88 109 -88 143c0 50.667 51 89 153 115c70 18 140.333 27 211 27c69.333 0 126 -14 170 -42c52 -32.667 78 -82 78 -148
c0 -32 -19.333 -74.333 -58 -127c-34 -46 -64.667 -78.333 -92 -97c54.667 -37.333 134.334 -56 239.001 -56h52v-177zM818.998 470c0 23.333 -36.667 34.999 -110 34.999c-117.333 0 -176 -13.667 -176 -41s53 -77.666 159 -150.999c84.667 64.667 127 117 127 157z" />
    <glyph glyph-name="uFECB" unicode="&#x639;" horiz-adv-x="830" arabic-form="initial" 
d="M829 1h-856v177h162c-30 56 -45 122 -45 198c0 77.333 28.333 144.333 85 201c64.667 64.667 150 97 256 97c116.667 0 236.667 -39 360 -117l-73 -116c-96 54 -182.667 81 -260 81c-48 0 -91.667 -12.333 -131 -37c-44.667 -28.667 -67 -66 -67 -112
c0 -130 75.667 -195 227 -195h342v-177z" />
    <glyph glyph-name="uFECC" unicode="&#x639;" horiz-adv-x="745" arabic-form="medial" 
d="M771 1h-71.999c-52.667 0 -110.667 13.333 -174 40c-60.667 25.333 -111.667 56.333 -153 93c-94.667 -88.667 -189.334 -133 -284.001 -133h-115v177h61c100.667 0 171.667 15 213 45c-160 140.667 -240 235 -240 283c0 50 51 88.333 153 115
c69.333 18 139.333 27 210 27c168 0 252 -60 252 -180c0 -68.667 -46.667 -146.667 -140 -234c52.667 -37.333 137 -56 253 -56h36v-177zM484.001 477c0 22.667 -37.333 34 -112 34c-30 0 -64 -3.33301 -102 -10c-54 -9.33301 -81 -22.333 -81 -39
c0 -13.333 21.333 -38 64 -74c35.333 -29.333 69.333 -54.333 102 -75c86 72 129 126.667 129 164z" />
    <glyph glyph-name="uFECE" unicode="&#x63a;" horiz-adv-x="1076" arabic-form="final" 
d="M758 813h-159v157h159v-157zM1104 1h-88.002c-114.667 0 -222 47.333 -322 142c-110.667 -57.333 -187.667 -103 -231 -137c-106 -82 -159 -169.333 -159 -262c0 -102 45 -179.667 135 -233c74.667 -44 166.667 -66 276 -66c118.667 0 225.334 17 320.001 51l44 -136
c-134 -52 -271 -78 -411 -78c-142 0 -261 38.667 -357 116c-102.667 82.667 -154 193.667 -154 333c0 170 88.667 309.667 266 419l147 88l-131 125c-58.667 61.333 -88 109 -88 143c0 50.667 51 89 153 115c70 18 140.333 27 211 27c69.333 0 126 -14 170 -42
c52 -32.667 78 -82 78 -148c0 -32 -19.333 -74.333 -58 -127c-34 -46 -64.667 -78.333 -92 -97c54.667 -37.333 134.334 -56 239.001 -56h52v-177zM818.998 470c0 23.333 -36.667 34.999 -110 34.999c-117.333 0 -176 -13.667 -176 -41s53 -77.666 159 -150.999
c84.667 64.667 127 117 127 157z" />
    <glyph glyph-name="uFECF" unicode="&#x63a;" horiz-adv-x="834" arabic-form="initial" 
d="M489 867h-158v158h158v-158zM829 1h-856v177h162c-30 56 -45 122 -45 198c0 77.333 28.333 144.333 85 201c64.667 64.667 150 97 256 97c116.667 0 236.667 -39 360 -117l-73 -116c-96 54 -182.667 81 -260 81c-48 0 -91.667 -12.333 -131 -37
c-44.667 -28.667 -67 -66 -67 -112c0 -130 75.667 -195 227 -195h342v-177z" />
    <glyph glyph-name="uFED0" unicode="&#x63a;" horiz-adv-x="745" arabic-form="medial" 
d="M423 813h-159v157h159v-157zM771 1h-71.999c-52.667 0 -110.667 13.333 -174 40c-60.667 25.333 -111.667 56.333 -153 93c-94.667 -88.667 -189.334 -133 -284.001 -133h-115v177h61c100.667 0 171.667 15 213 45c-160 140.667 -240 235 -240 283
c0 50 51 88.333 153 115c69.333 18 139.333 27 210 27c168 0 252 -60 252 -180c0 -68.667 -46.667 -146.667 -140 -234c52.667 -37.333 137 -56 253 -56h36v-177zM484.001 477c0 22.667 -37.333 34 -112 34c-30 0 -64 -3.33301 -102 -10c-54 -9.33301 -81 -22.333 -81 -39
c0 -13.333 21.333 -38 64 -74c35.333 -29.333 69.333 -54.333 102 -75c86 72 129 126.667 129 164z" />
    <glyph glyph-name="uFED2" unicode="&#x641;" horiz-adv-x="1875" arabic-form="final" 
d="M1552 803h-159v158h159v-158zM1901 1l-113 0.00195312c-39.333 0 -93.666 8.66699 -162.999 26c-76.667 19.333 -126.334 39.333 -149.001 60c-28.667 -20.667 -78.667 -40.334 -150 -59.001c-67.333 -18 -121.333 -27 -162 -27h-701c-98 0 -174 29.333 -228 88
c-52 56.667 -78 134.667 -78 234v62h147v-48c0 -106 49.667 -159 149 -159h725c60 0 106 5.33301 138 16c-74.667 56.667 -112 133.667 -112 231c0 67.333 31.333 123 94 167c56 39.333 119 59 189 59s131.333 -21.667 184 -65c56 -46.667 84 -104.334 84 -173.001
c0 -92.667 -41.333 -165.667 -124 -219c22 -10.667 53 -16 93 -16h177v-177zM1607 396.002c0 31.333 -12.832 57 -38.499 77s-54.5 30 -86.5 30c-34 0 -63 -8.33301 -87 -25c-28 -19.333 -42 -45 -42 -77c0 -34.667 11.5 -67 34.5 -97s51.167 -51 84.5 -63
c33.333 10 64.166 30.167 92.499 60.5s42.5 61.833 42.5 94.5z" />
    <glyph glyph-name="uFED3" unicode="&#x641;" horiz-adv-x="635" arabic-form="initial" 
d="M382 949h-158v157h158v-157zM631 349c0 -105.333 -26.6689 -188.667 -80.002 -250c-56 -65.333 -136 -98 -240 -98h-352v177h366c92.667 0 144.667 40 156 120h-143c-76.667 0 -139 21.167 -187 63.5s-72.667 101.5 -74 177.5c-1.33301 62 17.334 118.333 56.001 169
c42 54.667 93 82 153 82c108.667 0 195.334 -48 260.001 -144c56.667 -84 85 -183 85 -297zM476.998 459.999c-50 118.667 -111 178 -183 178c-28 0 -51.167 -9.66699 -69.5 -29s-27.5 -43 -27.5 -71c0 -52 40.667 -78 122 -78h158z" />
    <glyph glyph-name="uFED4" unicode="&#x641;" horiz-adv-x="748" arabic-form="medial" 
d="M428 803h-158v158h158v-158zM777 1l-113.999 -0.000976562c-62.667 0 -127 10 -193 30c-57.333 17.333 -97 36 -119 56c-27.333 -20 -69.333 -38.667 -126 -56c-65.333 -20 -127.333 -30 -186 -30h-66v177h81c59.333 0 105.666 5.33301 138.999 16
c-75.333 56.667 -113 133.334 -113 230.001c0 69.333 31 125.333 93 168c54.667 38.667 118 58 190 58c70 0 131.333 -21.667 184 -65c56 -46 84 -103.333 84 -172c0 -91.333 -41.333 -164.333 -124 -219c21.333 -10.667 52 -16 92 -16h178v-177zM483.001 395.999
c0 31.333 -12.832 56.999 -38.499 76.999s-54.834 30 -87.501 30c-34 0 -63 -8.33301 -87 -25c-28 -19.333 -42 -45 -42 -77c0 -34 11.833 -66.5 35.5 -97.5s52.167 -51.833 85.5 -62.5c33.333 10.667 63.333 30.334 90 59.001c29.333 31.333 44 63.333 44 96z" />
    <glyph glyph-name="uFED6" unicode="&#x642;" horiz-adv-x="1436" arabic-form="final" 
d="M1173 663h-158v158h158v-158zM957 663h-158v158h158v-158zM1463 1l-172.998 0.000976562c-14.667 -152.667 -85.667 -274.667 -213 -366c-116.667 -84 -254.334 -126 -413.001 -126c-160 0 -283.667 39.333 -371 118c-90.667 81.333 -136 201.333 -136 360
c0 81.333 12.667 163.666 38 246.999l139 -29c-18.667 -81.333 -28 -147 -28 -197c0 -101.333 28.833 -181 86.5 -239s137.167 -87 238.5 -87c123.333 0 231.666 22.667 324.999 68c119.333 58 179 142.333 179 253h-145c-86.667 0 -154 23.667 -202 71s-72 114.333 -72 201
c0 63.333 20 119.333 60 168c42 51.333 94 77 156 77c87.333 0 164 -36.333 230 -109c58 -64 97.333 -141.667 118 -233h183v-177zM1137 177.001c-43.333 118.667 -105.001 177.999 -185.001 177.999c-27.333 0 -50.166 -9.66699 -68.499 -29s-27.5 -42.666 -27.5 -69.999
c0 -52.667 40.333 -79 121 -79h160z" />
    <glyph glyph-name="uFED7" unicode="&#x642;" horiz-adv-x="635" arabic-form="initial" 
d="M511 945h-159v158h159v-158zM296 945h-159v158h159v-158zM631 349c0 -105.333 -26.6689 -188.667 -80.002 -250c-56 -65.333 -136 -98 -240 -98h-352v177h366c92.667 0 144.667 40 156 120h-143c-76.667 0 -139 21.167 -187 63.5s-72.667 101.5 -74 177.5
c-1.33301 62 17.334 118.333 56.001 169c42 54.667 93 82 153 82c108.667 0 195.334 -48 260.001 -144c56.667 -84 85 -183 85 -297zM476.998 459.999c-50 118.667 -111 178 -183 178c-28 0 -51.167 -9.66699 -69.5 -29s-27.5 -43 -27.5 -71c0 -52 40.667 -78 122 -78h158z
" />
    <glyph glyph-name="uFED8" unicode="&#x642;" horiz-adv-x="749" arabic-form="medial" 
d="M548 782h-159v157h159v-157zM332 782h-159v157h159v-157zM777 1l-113.999 -0.000976562c-62.667 0 -127 10 -193 30c-57.333 17.333 -97 36 -119 56c-27.333 -20 -69.333 -38.667 -126 -56c-65.333 -20 -127.333 -30 -186 -30h-66v177h81
c59.333 0 105.666 5.33301 138.999 16c-75.333 56.667 -113 133.334 -113 230.001c0 69.333 31 125.333 93 168c54.667 38.667 118 58 190 58c70 0 131.333 -21.667 184 -65c56 -46 84 -103.333 84 -172c0 -91.333 -41.333 -164.333 -124 -219c21.333 -10.667 52 -16 92 -16
h178v-177zM483.001 395.999c0 31.333 -12.832 56.999 -38.499 76.999s-54.834 30 -87.501 30c-34 0 -63 -8.33301 -87 -25c-28 -19.333 -42 -45 -42 -77c0 -34 11.833 -66.5 35.5 -97.5s52.167 -51.833 85.5 -62.5c33.333 10.667 63.333 30.334 90 59.001
c29.333 31.333 44 63.333 44 96z" />
    <glyph glyph-name="uFEDE" unicode="&#x644;" horiz-adv-x="1440" arabic-form="final" 
d="M1467 1l-86.999 -0.000976562c-46.667 0 -94 12.167 -142 36.5s-83.667 55.833 -107 94.5l5 -141c4.66699 -136 -34.333 -252.333 -117 -349c-95.333 -111.333 -231 -167 -407 -167c-144 0 -255.833 40.333 -335.5 121s-119.5 193.334 -119.5 338.001c0 90 19 184 57 282
l129 -38c-31.333 -82.667 -47 -162 -47 -238c0 -95.333 31 -169.333 93 -222c58 -48.667 135.667 -73 233 -73c93.333 0 174.666 24 243.999 72c84 58 123.667 139.333 119 244l-53 1197h164l28 -748c2.66699 -72 35 -130 97 -174c54 -38.667 113.667 -58 179 -58h67v-177z
" />
    <glyph glyph-name="uFEDF" unicode="&#x644;" horiz-adv-x="341" arabic-form="initial" 
d="M339 292c6 -194 -97.668 -291 -311.001 -291h-54v177h57c58.667 0 98.334 7.66699 119.001 23c26 19.333 38 59 36 119l-27 837h153z" />
    <glyph glyph-name="uFEE0" unicode="&#x644;" horiz-adv-x="542" arabic-form="medial" 
d="M569 1h-55.998c-36 0 -74.333 9.66699 -115 29c-50.667 24 -85.334 56.667 -104.001 98c-38.667 -84.667 -127.334 -127 -266.001 -127h-54v177h57c60 0 99.667 7.33301 119 22c24 18.667 36 58.667 36 120v837h153v-765c0 -142.667 55.667 -214 167 -214h63v-177z" />
    <glyph glyph-name="uFEE2" unicode="&#x645;" horiz-adv-x="1247" arabic-form="final" 
d="M1274 1h-57.002c-74 0 -148.333 32.333 -223 97c-50 -67.333 -134 -101 -252 -101c-32.667 0 -81.667 5 -147 15s-114.333 15 -147 15c-90.667 0 -136 -55 -136 -165v-740h-155v771c0 88 24 159.667 72 215c50.667 58.667 119.334 88 206.001 88
c27.333 220.667 128 331 302 331c78.667 0 147.334 -25.333 206.001 -76c61.333 -52 93.333 -117 96 -195c48.667 -52 113 -78 193 -78h42v-177zM904.998 256c0 38.667 -19.666 71 -58.999 97c-34.667 23.333 -72.334 35 -113.001 35c-94 0 -152 -64.333 -174 -193
c76 -15.333 145 -23 207 -23c92.667 0 139 28 139 84z" />
    <glyph glyph-name="uFEE3" unicode="&#x645;" horiz-adv-x="827" arabic-form="initial" 
d="M809 148c-46 -109.333 -119.332 -163.999 -219.999 -163.999c-58 0 -115.333 14.333 -172 43c-6.66699 3.33301 -54.667 32.666 -144 87.999c-70 -76 -148.333 -114 -235 -114h-65v177h72c51.333 0 93.666 21.333 126.999 64c8 10 33.333 56 76 138
c62.667 120 140 180 232 180c84 0 162.333 -33.333 235 -100c74 -68.667 111 -144.334 111 -227.001c0 -29.333 -5.66699 -57.666 -17 -84.999zM684.001 232.001c0 42.667 -28.665 87 -85.998 133c-41.333 33.333 -80 50 -116 50c-24.667 0 -49 -15 -73 -45
c-10.667 -13.333 -31.334 -48 -62.001 -104c102.667 -79.333 180.667 -119 234 -119c27.333 0 50.666 7.33301 69.999 22c22 16 33 37 33 63z" />
    <glyph glyph-name="uFEE4" unicode="&#x645;" horiz-adv-x="1016" arabic-form="medial" 
d="M1043 1l-55.998 0.000976562c-34.667 0 -71.834 9 -111.501 27s-70.167 40 -91.5 66c-53.333 -73.333 -118.333 -110 -195 -110c-58 0 -115.333 14.333 -172 43c-6.66699 3.33301 -54.667 32.666 -144 87.999c-70 -76 -148.333 -114 -235 -114h-65v177h72
c51.333 0 93.666 21.333 126.999 64c8 10 33.333 56 76 138c62.667 120 140 180 232 180c84 0 160.667 -31.333 230 -94s107 -135.667 113 -219c53.333 -46 113.333 -69 180 -69h40v-177zM684.002 232.001c0 42.667 -28.665 87 -85.998 133c-41.333 33.333 -80 50 -116 50
c-24.667 0 -49 -15 -73 -45c-10.667 -13.333 -31.334 -48 -62.001 -104c102.667 -79.333 180.667 -119 234 -119c27.333 0 50.666 7.33301 69.999 22c22 16 33 37 33 63z" />
    <glyph glyph-name="uFEE6" unicode="&#x646;" horiz-adv-x="1513" arabic-form="final" 
d="M716 296h-158v158h158v-158zM1541 1l-62.002 -0.00195312c-67.333 0 -121.666 14 -162.999 42c0 -135.333 -19.333 -238.333 -58 -309c-50.667 -93.333 -129.334 -166.333 -236.001 -219c-98 -49.333 -203.333 -74 -316 -74c-180 0 -319.333 49 -418 147
c-86.667 86 -130 195 -130 327c0 119.333 26 234 78 344l129 -39c-38 -112 -57 -204.667 -57 -278c0 -121.333 47.333 -210.666 142 -267.999c68.667 -41.333 150.334 -62 245.001 -62c118.667 0 222.334 27 311.001 81c104 63.333 156 151 156 263
c0 16.667 -2 36.334 -6 59.001c-22 124 -74.333 256.667 -157 398l133 84c61.333 -126.667 113.333 -209.667 156 -249c51.333 -46.667 125.333 -70 222 -70h31v-177z" />
    <glyph glyph-name="uFEE7" unicode="&#x646;" horiz-adv-x="400" arabic-form="initial" 
d="M276 726h-159v158h159v-158zM399 252c0 -63.333 -19.333 -118.334 -58 -165.001c-48 -57.333 -116.667 -86 -206 -86h-162v177h159c74.667 0 112 27.333 112 82c0 22.667 -8 48.334 -24 77.001l-92 163l129 91c52 -94 84 -154 96 -180c30.667 -66 46 -119 46 -159z" />
    <glyph glyph-name="uFEE8" unicode="&#x646;" horiz-adv-x="538" arabic-form="medial" 
d="M337 726h-159v158h159v-158zM566 1l-53 -0.000976562c-104 0 -178.333 38 -223 114c-46 -76 -115 -114 -207 -114h-110v177h70c62 0 101.333 13 118 39c11.333 18 17 58.667 17 122v212h154v-164c0 -85.333 15.667 -142.666 47 -171.999c26 -24 73.667 -36 143 -36h44
v-178z" />
    <glyph glyph-name="uFEEA" unicode="&#x647;" horiz-adv-x="1079" arabic-form="final" 
d="M1107 1l-73.002 0.000976562c-140.667 0 -244 56.333 -310 169c-69.333 -20 -150.666 -30 -243.999 -30c-215.333 0 -323 87.667 -323 263c0 64 48 130.667 144 200c16.667 12 82 51 196 117l-37 87l125 85l173 -469c31.333 -84.667 61.333 -142.334 90 -173.001
c44.667 -48 109.334 -72 194.001 -72h65v-177zM655.998 310.001l-109.999 274.999c-85.333 -41.333 -144.333 -74.666 -177 -99.999c-47.333 -36 -71 -73 -71 -111c0 -52 64 -78 192 -78c63.333 0 118.666 4.66699 165.999 14z" />
    <glyph glyph-name="uFEEB" unicode="&#x647;" horiz-adv-x="966" arabic-form="initial" 
d="M963 117c0 -59.333 -21.834 -109.666 -65.501 -150.999s-95.5 -62 -155.5 -62c-55.333 0 -130 21 -224 63c-70 31.333 -125.667 61.333 -167 90c-79.333 -37.333 -169.666 -56 -270.999 -56h-107v177h66c105.333 0 165 1.33301 179 4c-71.333 74 -107 167.333 -107 280
c0 56 20 110 60 162c46.667 60.667 107 97 181 109l-94 91l120 100c98 -84.667 197.667 -184 299 -298c190.667 -214.667 286 -384.334 286 -509.001zM823.999 139c0 28.667 -21.333 73.999 -64 135.999c-36.667 53.333 -71.334 96 -104.001 128
c2.66699 -53.333 -15.666 -106.666 -54.999 -159.999c-32.667 -44 -66 -74.333 -100 -91c100 -65.333 181 -98 243 -98c53.333 0 80 28.333 80 85zM549.999 456.999c0 38.667 -17 70.999 -51 96.999c-30.667 24 -66 36 -106 36c-37.333 0 -71.333 -13 -102 -39
s-46 -57.333 -46 -94c0 -45.333 12.333 -88.666 37 -129.999s57 -72.333 97 -93c114 46.667 171 121 171 223z" />
    <glyph glyph-name="uFEEC" unicode="&#x647;" horiz-adv-x="786" arabic-form="medial" 
d="M814 1l-50.999 -0.000976562c-58.667 0 -114.334 -11.333 -167.001 -34c-68 -29.333 -102 -69.666 -102 -120.999s73 -102 219 -152l-40 -135c-134.667 44.667 -234.667 91.667 -300 141c-108.667 82 -178.667 196.667 -210 344c-21.333 -28.667 -60 -43 -116 -43h-74
v177h74c43.333 0 72 16.333 86 49c8.66699 20 13 55.333 13 106v214h153v-345c0 -155.333 30.333 -256.333 91 -303c4 66 37.333 127 100 183c72 64 161.667 96 269 96h55v-177z" />
    <glyph glyph-name="uFEEE" unicode="&#x648;" horiz-adv-x="1115" arabic-form="final" 
d="M1142 1l-238.001 0.000976562c-56.667 -202.667 -298.667 -409 -726 -619l-78 134c350.667 166 568 328 652 486h-119c-88 0 -156 24 -204 72s-72 116 -72 204c0 64 23.5 118.667 70.5 164s102.833 68 167.5 68s126.334 -24 185.001 -72
c74 -60.667 118.333 -147.334 133 -260.001h229v-177zM762.999 175.001c-2 52 -24 96.334 -66 133.001c-35.333 31.333 -69 47 -101 47c-26 0 -49.667 -7.66699 -71 -23c-24 -16.667 -36 -37.334 -36 -62.001c0 -63.333 38.333 -95 115 -95h159z" />
    <glyph glyph-name="uFEF0" unicode="&#x649;" horiz-adv-x="1447" arabic-form="final" 
d="M1475 1l-125.999 -0.000976562c36.667 -46.667 55 -93 55 -139c0 -86 -67.667 -171.333 -203 -256c-150 -94 -324 -141 -522 -141c-176.667 0 -311.334 52.333 -404.001 157c-78.667 88.667 -118 200.334 -118 335.001c0 111.333 11 198.333 33 261l131 -39
c-16 -70.667 -24 -128 -24 -172c0 -86.667 20.333 -160.667 61 -222c65.333 -98.667 175.333 -148 330 -148c94.667 0 189.334 14.333 284.001 43c109.333 33.333 192.666 79 249.999 137c15.333 15.333 23 30.333 23 45c0 24.667 -20.667 50 -62 76
c-64 40 -202 73.667 -414 101l41 139h665v-177z" />
    <glyph glyph-name=".notdef" horiz-adv-x="1024" 
d="M128 0v1264h768v-1264h-768zM256 128h512v1008h-512v-1008z" />
    <glyph glyph-name="space" unicode=" " horiz-adv-x="470" 
 />
    <glyph glyph-name="exclam" unicode="!" horiz-adv-x="353" 
d="M351 1158l-59 -853h-77l-53 853h189zM344 3h-181v174h181v-174z" />
    <glyph glyph-name="percent" unicode="%" horiz-adv-x="956" 
d="M269 1011h-179v182h179v-182zM762 1236l-488 -1396h-86l482 1396h92zM865 -132h-182v183h182v-183z" />
    <glyph glyph-name="parenleft" unicode="(" horiz-adv-x="585" 
d="M585 -309l-70 -69.001c-238.667 245.333 -358 517 -358 815s119.333 569.667 358 815l70 -69c-56 -57.333 -114 -146.333 -174 -267c-82.667 -166.667 -124 -325 -124 -475c0 -177.333 41.333 -345.666 124 -504.999c50.667 -97.333 108.667 -179 174 -245z" />
    <glyph glyph-name="parenright" unicode=")" horiz-adv-x="585" 
d="M586 433c0 -298 -119.333 -569.331 -358 -813.998l-69 68c56 58 113.667 147 173 267c82.667 167.333 124 325.666 124 474.999c0 177.333 -41.333 345.666 -124 504.999c-49.333 94.667 -107 176.667 -173 246l69 69c238.667 -244.667 358 -516.667 358 -816z" />
    <glyph glyph-name="asterisk" unicode="*" horiz-adv-x="1078" 
d="M1075 283l-80 -135l-293 166v-337h-169v337l-296 -166l-79 135l306 176l-306 168l79 134l296 -164v335h169v-335l293 164l80 -134l-301 -170z" />
    <glyph glyph-name="plus" unicode="+" horiz-adv-x="887" 
d="M778 301h-287v-300h-99v300h-301v104h301v298h99v-298h287v-104z" />
    <glyph glyph-name="comma" unicode="," horiz-adv-x="357" 
d="M142 -180c76.667 14 115 75 115 183h-109v184h191v-104c0 -186.667 -65.667 -285.667 -197 -297v34z" />
    <glyph glyph-name="hyphen" unicode="-" horiz-adv-x="887" 
d="M778 301h-687v104h687v-104z" />
    <glyph glyph-name="period" unicode="." horiz-adv-x="337" 
d="M336 1h-179v177h179v-177z" />
    <glyph glyph-name="slash" unicode="/" horiz-adv-x="713" 
d="M636 1248l-485 -1397h-81l475 1397h91z" />
    <glyph glyph-name="zero" unicode="0" horiz-adv-x="1033" 
d="M656 324h-267v266h267v-266z" />
    <glyph glyph-name="zero" unicode="&#x6f0;" horiz-adv-x="1033" 
d="M656 324h-267v266h267v-266z" />
    <glyph glyph-name="zero" unicode="&#x660;" horiz-adv-x="1033" 
d="M656 324h-267v266h267v-266z" />
    <glyph glyph-name="one" unicode="1" horiz-adv-x="1033" 
d="M706 -83h-182c0 493.333 -85.667 874 -257 1142l120 158c94 -104.667 171.667 -280 233 -526c57.333 -229.333 86 -455.333 86 -678v-96z" />
    <glyph glyph-name="one" unicode="&#x6f1;" horiz-adv-x="1033" 
d="M706 -83h-182c0 493.333 -85.667 874 -257 1142l120 158c94 -104.667 171.667 -280 233 -526c57.333 -229.333 86 -455.333 86 -678v-96z" />
    <glyph glyph-name="one" unicode="&#x661;" horiz-adv-x="1033" 
d="M706 -83h-182c0 493.333 -85.667 874 -257 1142l120 158c94 -104.667 171.667 -280 233 -526c57.333 -229.333 86 -455.333 86 -678v-96z" />
    <glyph glyph-name="two" unicode="2" horiz-adv-x="1033" 
d="M913 990c0 -213.333 -101.332 -319.999 -303.999 -319.999c-48 0 -101.667 6.33301 -161 19c62 -234.667 93 -492 93 -772h-179c0 200 -19 393.667 -57 581c-46.667 228.667 -115.334 409 -206.001 541l140 174l136 -260c42.667 -61.333 125 -92 247 -92
c94.667 0 142 47 142 141c0 43.333 -10 94.666 -30 153.999l127 93c34.667 -88.667 52 -175 52 -259z" />
    <glyph glyph-name="two" unicode="&#x6f2;" horiz-adv-x="1033" 
d="M913 990c0 -213.333 -101.332 -319.999 -303.999 -319.999c-48 0 -101.667 6.33301 -161 19c62 -234.667 93 -492 93 -772h-179c0 200 -19 393.667 -57 581c-46.667 228.667 -115.334 409 -206.001 541l140 174l136 -260c42.667 -61.333 125 -92 247 -92
c94.667 0 142 47 142 141c0 43.333 -10 94.666 -30 153.999l127 93c34.667 -88.667 52 -175 52 -259z" />
    <glyph glyph-name="two" unicode="&#x662;" horiz-adv-x="1033" 
d="M913 990c0 -213.333 -101.332 -319.999 -303.999 -319.999c-48 0 -101.667 6.33301 -161 19c62 -234.667 93 -492 93 -772h-179c0 200 -19 393.667 -57 581c-46.667 228.667 -115.334 409 -206.001 541l140 174l136 -260c42.667 -61.333 125 -92 247 -92
c94.667 0 142 47 142 141c0 43.333 -10 94.666 -30 153.999l127 93c34.667 -88.667 52 -175 52 -259z" />
    <glyph glyph-name="three" unicode="3" horiz-adv-x="1033" 
d="M978 987c0 -170 -71.335 -255 -214.002 -255c-62 0 -106.667 23.333 -134 70c-35.333 -76.667 -97 -115 -185 -115c-20.667 0 -42.334 2 -65.001 6c84.667 -197.333 127 -456 127 -776h-172c0 390 -96.667 770.333 -290 1141l125 160c18.667 -22 57.334 -95 116.001 -219
c38.667 -82 82.334 -123 131.001 -123c78.667 0 118 53 118 159v132h124l1 -152c0.666992 -87.333 35.334 -131 104.001 -131c54.667 0 82 32 82 96c0 39.333 -10.333 86.333 -31 141l125 73c25.333 -77.333 38 -146.333 38 -207z" />
    <glyph glyph-name="three" unicode="&#x6f3;" horiz-adv-x="1033" 
d="M978 987c0 -170 -71.335 -255 -214.002 -255c-62 0 -106.667 23.333 -134 70c-35.333 -76.667 -97 -115 -185 -115c-20.667 0 -42.334 2 -65.001 6c84.667 -197.333 127 -456 127 -776h-172c0 390 -96.667 770.333 -290 1141l125 160c18.667 -22 57.334 -95 116.001 -219
c38.667 -82 82.334 -123 131.001 -123c78.667 0 118 53 118 159v132h124l1 -152c0.666992 -87.333 35.334 -131 104.001 -131c54.667 0 82 32 82 96c0 39.333 -10.333 86.333 -31 141l125 73c25.333 -77.333 38 -146.333 38 -207z" />
    <glyph glyph-name="three" unicode="&#x663;" horiz-adv-x="1033" 
d="M978 987c0 -170 -71.335 -255 -214.002 -255c-62 0 -106.667 23.333 -134 70c-35.333 -76.667 -97 -115 -185 -115c-20.667 0 -42.334 2 -65.001 6c84.667 -197.333 127 -456 127 -776h-172c0 390 -96.667 770.333 -290 1141l125 160c18.667 -22 57.334 -95 116.001 -219
c38.667 -82 82.334 -123 131.001 -123c78.667 0 118 53 118 159v132h124l1 -152c0.666992 -87.333 35.334 -131 104.001 -131c54.667 0 82 32 82 96c0 39.333 -10.333 86.333 -31 141l125 73c25.333 -77.333 38 -146.333 38 -207z" />
    <glyph glyph-name="four" unicode="4" horiz-adv-x="1033" 
d="M865 -52h-423c-74.667 0 -138.334 18.333 -191.001 55c-60 41.333 -90 98 -90 170c0 134 89.667 292 269 474c-112 71.333 -168 159.333 -168 264c0 72.667 48 138 144 196c68.667 41.333 172 84 310 128l54 -121c-65.333 -15.333 -132 -40 -200 -74
c-93.333 -46.667 -140 -92.334 -140 -137.001c0 -43.333 37.667 -80 113 -110c59.333 -23.333 115 -35 167 -35v-95c-82 -45.333 -159.333 -104.666 -232 -177.999c-91.333 -92.667 -137 -175 -137 -247c0 -52.667 24.667 -87 74 -103c24.667 -8 71.334 -12 140.001 -12h310
v-175z" />
    <glyph glyph-name="four" unicode="&#x6f4;" horiz-adv-x="1033" 
d="M865 -52h-423c-74.667 0 -138.334 18.333 -191.001 55c-60 41.333 -90 98 -90 170c0 134 89.667 292 269 474c-112 71.333 -168 159.333 -168 264c0 72.667 48 138 144 196c68.667 41.333 172 84 310 128l54 -121c-65.333 -15.333 -132 -40 -200 -74
c-93.333 -46.667 -140 -92.334 -140 -137.001c0 -43.333 37.667 -80 113 -110c59.333 -23.333 115 -35 167 -35v-95c-82 -45.333 -159.333 -104.666 -232 -177.999c-91.333 -92.667 -137 -175 -137 -247c0 -52.667 24.667 -87 74 -103c24.667 -8 71.334 -12 140.001 -12h310
v-175z" />
    <glyph glyph-name="four" unicode="&#x664;" horiz-adv-x="1033" 
d="M865 -52h-423c-74.667 0 -138.334 18.333 -191.001 55c-60 41.333 -90 98 -90 170c0 134 89.667 292 269 474c-112 71.333 -168 159.333 -168 264c0 72.667 48 138 144 196c68.667 41.333 172 84 310 128l54 -121c-65.333 -15.333 -132 -40 -200 -74
c-93.333 -46.667 -140 -92.334 -140 -137.001c0 -43.333 37.667 -80 113 -110c59.333 -23.333 115 -35 167 -35v-95c-82 -45.333 -159.333 -104.666 -232 -177.999c-91.333 -92.667 -137 -175 -137 -247c0 -52.667 24.667 -87 74 -103c24.667 -8 71.334 -12 140.001 -12h310
v-175z" />
    <glyph glyph-name="five" unicode="5" horiz-adv-x="1033" 
d="M964 274c0 -239.333 -157 -359 -471 -359c-286 0 -429 118.333 -429 355c0 178.667 92.333 409.667 277 693l-117 98l74 141c176 -134 326.333 -282.333 451 -445c143.333 -186.667 215 -347.667 215 -483zM806 288c0 68.667 -42.333 165.667 -127 291
c-78 115.333 -156.333 206 -235 272c-152 -242 -228 -436.667 -228 -584c0 -118 90.667 -177 272 -177c94 0 164.333 10 211 30c71.333 30.667 107 86.667 107 168z" />
    <glyph glyph-name="five" unicode="&#x6f5;" horiz-adv-x="1033" 
d="M964 274c0 -239.333 -157 -359 -471 -359c-286 0 -429 118.333 -429 355c0 178.667 92.333 409.667 277 693l-117 98l74 141c176 -134 326.333 -282.333 451 -445c143.333 -186.667 215 -347.667 215 -483zM806 288c0 68.667 -42.333 165.667 -127 291
c-78 115.333 -156.333 206 -235 272c-152 -242 -228 -436.667 -228 -584c0 -118 90.667 -177 272 -177c94 0 164.333 10 211 30c71.333 30.667 107 86.667 107 168z" />
    <glyph glyph-name="five" unicode="&#x665;" horiz-adv-x="1033" 
d="M964 274c0 -239.333 -157 -359 -471 -359c-286 0 -429 118.333 -429 355c0 178.667 92.333 409.667 277 693l-117 98l74 141c176 -134 326.333 -282.333 451 -445c143.333 -186.667 215 -347.667 215 -483zM806 288c0 68.667 -42.333 165.667 -127 291
c-78 115.333 -156.333 206 -235 272c-152 -242 -228 -436.667 -228 -584c0 -118 90.667 -177 272 -177c94 0 164.333 10 211 30c71.333 30.667 107 86.667 107 168z" />
    <glyph glyph-name="six" unicode="6" horiz-adv-x="1033" 
d="M971 754c-196.667 -101.333 -360.332 -229.33 -490.999 -383.997c-104.667 -124 -200 -282 -286 -474l-121 128c98 199.333 229.333 392.666 394 579.999c-37.333 -6 -72 -9 -104 -9c-74 0 -133 16.333 -177 49c-50 37.333 -75 91.666 -75 162.999
c0 91.333 58 187 174 287c104.667 90 204 135 298 135c56 0 106.333 -19 151 -57l-49 -106c-40 16.667 -77.333 25 -112 25c-66 0 -135.333 -33 -208 -99c-64 -58 -96 -102 -96 -132c0 -44.667 15 -74.334 45 -89.001c19.333 -9.33301 54.666 -14 105.999 -14
c107.333 0 273 46.333 497 139z" />
    <glyph glyph-name="six" unicode="&#x6f6;" horiz-adv-x="1033" 
d="M971 754c-196.667 -101.333 -360.332 -229.33 -490.999 -383.997c-104.667 -124 -200 -282 -286 -474l-121 128c98 199.333 229.333 392.666 394 579.999c-37.333 -6 -72 -9 -104 -9c-74 0 -133 16.333 -177 49c-50 37.333 -75 91.666 -75 162.999
c0 91.333 58 187 174 287c104.667 90 204 135 298 135c56 0 106.333 -19 151 -57l-49 -106c-40 16.667 -77.333 25 -112 25c-66 0 -135.333 -33 -208 -99c-64 -58 -96 -102 -96 -132c0 -44.667 15 -74.334 45 -89.001c19.333 -9.33301 54.666 -14 105.999 -14
c107.333 0 273 46.333 497 139z" />
    </font>
</defs>
</svg>
